<svg width="639" height="626" viewBox="0 0 639 626" fill="none" xmlns="http://www.w3.org/2000/svg">
<g opacity="0.3">
<path d="M309.888 540.99L297.537 572.99L288.842 534.164L265.799 566.607L266.781 532.437L258.226 530.739L256.862 591.762L284.586 552.981L295.197 599.369L318.443 542.688L309.888 540.99Z" fill="#A4AFC1"/>
<path d="M224.654 515.438L201.343 525.25C197.546 526.87 194.412 527.997 190.529 530.627C187.308 532.763 184.942 535.089 182.97 538.598C179.93 544.008 180.153 548.747 181.01 552.015C181.867 555.284 184.224 560.162 190.881 563.894C196.294 566.929 201.418 567.398 206.257 565.977C210.867 564.62 215.193 561.373 217.946 556.475C220.78 551.431 220.818 546.742 219.728 542.862C218.862 539.781 216.642 535.172 210.863 531.932C209.985 531.44 209.139 531.062 208.065 530.748L227.808 522.494L224.654 515.438ZM206.118 537.636C208.825 539.153 210.728 541.758 211.475 544.196C212.276 547.049 211.781 550.328 210.261 553.032C208.576 556.029 205.895 557.891 203.381 558.597C200.909 559.23 197.577 558.996 194.871 557.479C192.384 556.084 190.325 553.585 189.482 550.805C188.64 548.025 189.053 544.892 190.532 542.261C191.97 539.702 194.555 537.499 197.452 536.623C200.464 535.716 203.631 536.242 206.118 537.636Z" fill="#A4AFC1"/>
<path d="M125.604 515.887L168.342 479.801L162.816 473.273L145.324 488.042L144.348 486.89L151.494 459.895L144.83 452.022L137.837 480.754C131.734 476.139 124.052 476.15 117.901 481.344C116.042 482.913 111.305 487.571 112.12 494.894C112.592 499.216 114.768 503.085 119.157 508.27L125.604 515.887ZM126.101 504.272L124.205 502.032C121.496 498.832 117.251 492.648 123.274 487.562C130.066 481.828 136.434 488.962 137.951 490.755L139.685 492.803L126.101 504.272Z" fill="#A4AFC1"/>
<path d="M70.4883 437.899C76.9703 453.366 93.3411 459.883 108.507 453.543C123.673 447.202 130.515 430.982 124.033 415.515C117.551 400.047 101.18 393.531 86.0142 399.871C70.8484 406.211 64.0063 422.432 70.4883 437.899ZM116.759 418.555C121.394 429.614 116.653 440.867 105.201 445.654C93.7493 450.442 82.3963 445.918 77.7617 434.858C73.127 423.799 77.8684 412.547 89.3201 407.759C100.772 402.972 112.125 407.496 116.759 418.555Z" fill="#A4AFC1"/>
<path d="M102.025 326.81L101.491 317.602L43.9129 347.475L104.638 371.846L104.103 362.638L90.2686 357.307L88.8845 333.45L102.025 326.81ZM82.0267 354.256L62.6038 346.729L81.0457 337.347L82.0267 354.256Z" fill="#A4AFC1"/>
<path d="M62.8165 256.596C60.2688 257.233 58.0393 258.369 56.4011 259.551C54.5444 260.942 51.5861 263.806 50.2729 269.699C47.9931 279.929 53.7571 287.224 61.1253 288.862C69.3123 290.682 74.5556 284.89 77.4417 280.807L80.8195 276.06C83.0957 272.787 86.3364 269.04 91.9035 270.278C97.3888 271.497 100.197 276.245 99.0666 281.319C98.3371 284.593 96.5165 286.593 94.2051 287.712C92.194 288.639 89.4372 289.057 86.7355 288.456L86.6945 297.123C90.5334 297.633 94.4275 297.124 98.3589 294.906C102.09 292.814 105.303 289.578 106.708 283.276C108.987 273.045 103.506 264.096 93.109 261.784C86.8869 260.401 80.5359 261.91 74.1991 271.067L70.7666 276.059C67.4525 280.905 64.4594 280.841 62.822 280.477C59.3016 279.695 56.8561 276.402 57.9869 271.328C58.5158 268.954 59.4902 267.281 61.265 265.872C62.6028 264.881 63.9132 264.399 65.2506 264.181L62.8165 256.596Z" fill="#A4AFC1"/>
<path d="M84.23 200.037L76.948 196.603L62.3262 227.533L69.6082 230.967L75.0913 219.368L118.404 239.794L122.059 232.061L78.7468 211.636L84.23 200.037Z" fill="#A4AFC1"/>
<path d="M108.45 149.473L89.5623 173.876L133.837 208.061L152.725 183.657L146.353 178.737L132.7 196.377L118.76 185.614L132.003 168.505L125.63 163.585L112.388 180.694L101.17 172.032L114.823 154.393L108.45 149.473Z" fill="#A4AFC1"/>
<path d="M130.393 124.765L165.27 168.493L171.963 163.167L157.689 145.269L158.87 144.329L185.679 152.254L193.751 145.832L165.199 138.008C169.993 132.05 170.205 124.38 165.185 118.087C163.669 116.186 159.145 111.32 151.792 111.919C147.454 112.263 143.518 114.322 138.203 118.551L130.393 124.765ZM142.002 125.602L144.299 123.774C147.58 121.163 153.891 117.107 158.807 123.269C164.349 130.218 157.025 136.367 155.187 137.829L153.087 139.5L142.002 125.602Z" fill="#A4AFC1"/>
<path d="M216.208 79.6787C214.16 78.0339 211.907 76.9448 209.975 76.3541C207.744 75.7158 203.673 75.0901 198.183 77.6046C188.652 81.9701 186.324 90.9683 189.473 97.8267C192.972 105.447 200.757 106.124 205.756 105.956L211.58 105.778C215.565 105.613 220.509 105.931 222.889 111.113C225.233 116.219 223.148 121.324 218.42 123.489C215.37 124.886 212.675 124.645 210.387 123.48C208.432 122.438 206.433 120.495 205.278 117.98L198.347 123.184C200.261 126.549 203.021 129.344 207.165 131.135C211.087 132.843 215.609 133.447 221.48 130.757C231.011 126.392 234.83 116.619 230.386 106.941C227.727 101.149 222.685 97.0026 211.557 97.4879L205.504 97.7702C199.638 98.0589 197.88 95.6362 197.18 94.1121C195.675 90.8353 196.821 86.8982 201.548 84.733C203.759 83.7202 205.682 83.4853 207.878 84.0474C209.476 84.5142 210.652 85.2668 211.635 86.2003L216.208 79.6787Z" fill="#A4AFC1"/>
<path d="M311.484 104.274L321.598 71.4991L332.95 109.635L353.7 75.6827L355.077 109.84L363.729 110.945L360.88 49.9722L335.898 90.5695L322.112 45.0219L302.832 103.169L311.484 104.274Z" fill="#A4AFC1"/>
<path d="M398.535 123.942L421.14 112.601C424.82 110.731 427.872 109.398 431.571 106.516C434.642 104.17 436.848 101.691 438.582 98.0584C441.255 92.4584 440.717 87.7444 439.644 84.5403C438.571 81.3363 435.894 76.6255 429.004 73.3447C423.401 70.6768 418.257 70.5497 413.524 72.2896C409.014 73.9502 404.914 77.4777 402.494 82.548C400.002 87.7696 400.277 92.4511 401.623 96.2499C402.692 99.2665 405.214 103.718 411.196 106.566C412.105 106.999 412.974 107.32 414.066 107.561L394.918 117.112L398.535 123.942ZM415.55 100.559C412.748 99.2251 410.676 96.7524 409.769 94.3701C408.779 91.5769 409.055 88.2721 410.391 85.4721C411.872 82.3694 414.424 80.3337 416.884 79.462C419.309 78.6659 422.649 78.6773 425.45 80.0113C428.025 81.2371 430.245 83.5944 431.271 86.312C432.297 89.0295 432.093 92.1829 430.793 94.9072C429.529 97.5558 427.096 99.9268 424.264 100.993C421.32 102.099 418.125 101.785 415.55 100.559Z" fill="#A4AFC1"/>
<path d="M497.53 116.95L457.243 155.752L463.184 161.905L479.674 146.024L480.722 147.11L475.358 174.514L482.522 181.935L487.621 152.807C494.013 157.012 501.678 156.5 507.476 150.915C509.228 149.228 513.65 144.27 512.358 137.016C511.605 132.734 509.18 129.016 504.462 124.129L497.53 116.95ZM497.794 128.572L499.832 130.683C502.745 133.7 507.385 139.592 501.708 145.061C495.305 151.227 488.484 144.524 486.853 142.835L484.989 140.905L497.794 128.572Z" fill="#A4AFC1"/>
<path d="M557.082 189.826C549.578 174.828 532.807 169.422 518.099 176.762C503.391 184.102 497.651 200.744 505.155 215.742C512.658 230.741 529.43 236.147 544.137 228.807C558.845 221.466 564.585 204.825 557.082 189.826ZM512.208 212.222C506.843 201.498 510.82 189.954 521.926 184.411C533.032 178.869 544.663 182.623 550.028 193.347C555.393 204.071 551.416 215.615 540.31 221.157C529.204 226.7 517.574 222.946 512.208 212.222Z" fill="#A4AFC1"/>
<path d="M533.6 303.12L534.736 312.274L590.236 278.704L528.044 258.352L529.18 267.505L543.335 271.921L546.278 295.637L533.6 303.12ZM551.759 274.427L571.633 280.669L553.845 291.236L551.759 274.427Z" fill="#A4AFC1"/>
<path d="M577.527 371.326C580.027 370.526 582.178 369.248 583.736 367.962C585.499 366.453 588.264 363.403 589.192 357.437C590.801 347.08 584.575 340.175 577.116 339.019C568.829 337.734 563.973 343.854 561.359 348.115L558.297 353.071C556.238 356.485 553.248 360.434 547.612 359.56C542.059 358.699 538.948 354.144 539.746 349.007C540.262 345.693 541.948 343.578 544.182 342.312C546.129 341.257 548.852 340.661 551.587 341.085L551.065 332.434C547.201 332.174 543.348 332.934 539.569 335.403C535.982 337.732 532.986 341.17 531.995 347.55C530.385 357.907 536.436 366.482 546.961 368.114C553.26 369.091 559.5 367.173 565.228 357.625L568.328 352.42C571.32 347.369 574.311 347.239 575.969 347.496C579.532 348.048 582.187 351.175 581.388 356.312C581.015 358.715 580.151 360.448 578.472 361.969C577.201 363.045 575.925 363.611 574.605 363.915L577.527 371.326Z" fill="#A4AFC1"/>
<path d="M560.225 428.715L567.721 431.653L580.232 399.811L572.736 396.873L568.044 408.813L523.459 391.338L520.331 399.299L564.917 416.774L560.225 428.715Z" fill="#A4AFC1"/>
<path d="M540.077 480.153L557.226 454.498L510.687 423.465L493.538 449.121L500.236 453.587L512.632 435.043L527.285 444.813L515.262 462.8L521.96 467.266L533.983 449.279L545.775 457.142L533.379 475.686L540.077 480.153Z" fill="#A4AFC1"/>
<path d="M519.928 506.566L482.113 465.352L475.803 471.127L491.281 487.996L490.167 489.015L462.874 482.96L455.265 489.925L484.29 495.758C479.918 502.033 480.237 509.699 485.68 515.631C487.324 517.423 492.174 521.965 499.468 520.859C503.772 520.217 507.555 517.89 512.566 513.304L519.928 506.566ZM508.289 506.533L506.124 508.515C503.03 511.346 497.015 515.829 491.685 510.02C485.676 503.471 492.558 496.831 494.29 495.245L496.27 493.434L508.289 506.533Z" fill="#A4AFC1"/>
<path d="M436.834 557.983C438.987 559.488 441.308 560.424 443.275 560.885C445.544 561.373 449.648 561.726 454.958 558.851C464.176 553.86 465.899 544.727 462.299 538.094C458.3 530.724 450.486 530.568 445.51 531.069L439.71 531.634C435.745 532.064 430.79 532.077 428.07 527.065C425.39 522.127 427.13 516.894 431.703 514.419C434.653 512.822 437.358 512.883 439.719 513.893C441.739 514.802 443.864 516.608 445.184 519.04L451.753 513.386C449.618 510.155 446.678 507.551 442.423 506.041C438.396 504.598 433.843 504.297 428.164 507.371C418.946 512.362 415.788 522.367 420.868 531.727C423.907 537.329 429.215 541.13 440.286 539.904L446.307 539.219C452.141 538.54 454.057 540.84 454.857 542.314C456.577 545.483 455.697 549.488 451.124 551.963C448.985 553.121 447.083 553.484 444.854 553.069C443.228 552.71 442.004 552.037 440.962 551.172L436.834 557.983Z" fill="#A4AFC1"/>
</g>
<path d="M310.863 567.369L298.512 599.369L289.817 560.543L266.775 592.986L267.757 558.815L259.201 557.118L257.838 618.14L285.561 579.36L296.173 625.747L319.419 569.066L310.863 567.369Z" fill="black"/>
<path d="M215.251 539.399L191.94 549.21C188.144 550.831 185.009 551.957 181.126 554.587C177.906 556.723 175.54 559.05 173.568 562.559C170.528 567.968 170.75 572.708 171.607 575.976C172.464 579.244 174.821 584.122 181.478 587.854C186.892 590.889 192.015 591.358 196.854 589.937C201.465 588.58 205.79 585.334 208.543 580.436C211.378 575.392 211.416 570.703 210.325 566.823C209.459 563.742 207.239 559.133 201.46 555.893C200.582 555.401 199.737 555.023 198.662 554.709L218.405 546.454L215.251 539.399ZM196.716 561.596C199.422 563.114 201.325 565.719 202.072 568.156C202.874 571.009 202.378 574.288 200.858 576.993C199.174 579.99 196.492 581.851 193.979 582.557C191.507 583.19 188.175 582.957 185.468 581.439C182.981 580.045 180.923 577.545 180.08 574.765C179.237 571.986 179.651 568.853 181.13 566.221C182.568 563.663 185.153 561.459 188.05 560.584C191.061 559.676 194.229 560.202 196.716 561.596Z" fill="black"/>
<path d="M108.193 534.726L150.931 498.64L145.406 492.111L127.913 506.881L126.938 505.729L134.083 478.734L127.419 470.861L120.426 499.593C114.323 494.978 106.641 494.989 100.49 500.183C98.6314 501.752 93.8945 506.41 94.7096 513.733C95.181 518.054 97.3574 521.924 101.746 527.109L108.193 534.726ZM108.69 523.111L106.794 520.871C104.085 517.671 99.8398 511.487 105.863 506.401C112.655 500.667 119.023 507.801 120.54 509.594L122.274 511.642L108.69 523.111Z" fill="black"/>
<path d="M48.5176 451.675C54.9996 467.142 71.3704 473.659 86.5362 467.318C101.702 460.978 108.544 444.758 102.062 429.29C95.5801 413.823 79.2094 407.307 64.0436 413.647C48.8778 419.987 42.0356 436.208 48.5176 451.675ZM94.7888 432.331C99.4234 443.39 94.6821 454.643 83.2304 459.43C71.7786 464.218 60.4256 459.693 55.791 448.634C51.1563 437.575 55.8977 426.323 67.3494 421.535C78.8011 416.748 90.1541 421.272 94.7888 432.331Z" fill="black"/>
<path d="M76.3872 331.365L75.853 322.157L18.2752 352.03L78.9998 376.401L78.4657 367.193L64.6309 361.862L63.2469 338.005L76.3872 331.365ZM56.389 358.812L36.9661 351.285L55.408 341.902L56.389 358.812Z" fill="black"/>
<path d="M36.8536 252.748C34.3059 253.384 32.0764 254.52 30.4382 255.702C28.5815 257.093 25.6233 259.958 24.3101 265.85C22.0302 276.081 27.7942 283.375 35.1625 285.013C43.3494 286.833 48.5927 281.041 51.4789 276.958L54.8566 272.212C57.1328 268.938 60.3736 265.192 65.9407 266.429C71.4259 267.649 74.2346 272.396 73.1037 277.471C72.3742 280.744 70.5536 282.745 68.2422 283.863C66.2311 284.79 63.4743 285.208 60.7726 284.608L60.7316 293.274C64.5705 293.784 68.4646 293.275 72.396 291.057C76.1271 288.966 79.3403 285.729 80.7447 279.427C83.0246 269.196 77.5435 260.247 67.1461 257.936C60.924 256.553 54.573 258.061 48.2362 267.218L44.8037 272.21C41.4896 277.057 38.4965 276.993 36.8591 276.629C33.3387 275.846 30.8932 272.554 32.024 267.479C32.5529 265.106 33.5273 263.433 35.3021 262.023C36.64 261.032 37.9503 260.551 39.2878 260.332L36.8536 252.748Z" fill="black"/>
<path d="M59.7642 189.845L52.4822 186.411L37.8604 217.341L45.1423 220.775L50.6255 209.177L93.9381 229.602L97.5936 221.869L54.281 201.444L59.7642 189.845Z" fill="black"/>
<path d="M86.2388 134.423L67.3506 158.827L111.625 193.011L130.513 168.607L124.141 163.687L110.488 181.327L96.5487 170.564L109.791 153.455L103.419 148.535L90.1763 165.644L78.9583 156.983L92.6111 139.343L86.2388 134.423Z" fill="black"/>
<path d="M112.052 104.694L146.928 148.422L153.622 143.097L139.347 125.199L140.528 124.259L167.337 132.184L175.409 125.762L146.857 117.938C151.652 111.98 151.863 104.31 146.844 98.0164C145.327 96.1152 140.803 91.2493 133.45 91.8484C129.112 92.1924 125.176 94.2518 119.861 98.481L112.052 104.694ZM123.66 105.531L125.957 103.704C129.238 101.093 135.55 97.0362 140.465 103.199C146.007 110.148 138.683 116.297 136.845 117.759L134.745 119.43L123.66 105.531Z" fill="black"/>
<path d="M203.114 55.4566C201.067 53.8118 198.814 52.7226 196.881 52.1319C194.65 51.4937 190.58 50.868 185.09 53.3825C175.559 57.7479 173.23 66.7461 176.379 73.6046C179.878 81.225 187.664 81.9017 192.662 81.7336L198.487 81.556C202.472 81.3911 207.416 81.7088 209.795 86.8907C212.14 91.9964 210.054 97.102 205.327 99.2672C202.277 100.664 199.582 100.423 197.294 99.2574C195.339 98.2158 193.339 96.2726 192.185 93.7578L185.253 98.9616C187.168 102.327 189.927 105.122 194.072 106.912C197.994 108.621 202.516 109.224 208.387 106.535C217.918 102.17 221.736 92.3969 217.293 82.7189C214.634 76.9273 209.592 72.7804 198.464 73.2657L192.411 73.5481C186.545 73.8368 184.786 71.4141 184.087 69.89C182.582 66.6132 183.728 62.676 188.455 60.5108C190.666 59.498 192.588 59.2631 194.785 59.8252C196.383 60.292 197.559 61.0446 198.542 61.9781L203.114 55.4566Z" fill="black"/>
<path d="M310.708 75.8235L320.822 43.0489L332.174 81.1851L352.923 47.2325L354.301 81.39L362.953 82.4948L360.104 21.522L335.122 62.1193L321.336 16.5717L302.056 74.7187L310.708 75.8235Z" fill="black"/>
<path d="M408.319 97.1932L430.924 85.8521C434.604 83.9824 437.656 82.6495 441.355 79.767C444.426 77.4214 446.632 74.9423 448.366 71.3099C451.039 65.7099 450.501 60.9959 449.428 57.7918C448.355 54.5877 445.678 49.8769 438.788 46.5961C433.185 43.9283 428.041 43.8012 423.308 45.541C418.798 47.2016 414.698 50.7291 412.278 55.7994C409.786 61.021 410.061 65.7026 411.407 69.5013C412.476 72.518 414.998 76.9693 420.98 79.8174C421.889 80.25 422.758 80.5709 423.85 80.8126L404.702 90.3632L408.319 97.1932ZM425.334 73.8105C422.532 72.4765 420.46 70.0039 419.553 67.6215C418.563 64.8283 418.839 61.5236 420.175 58.7236C421.656 55.6209 424.208 53.5851 426.668 52.7134C429.093 51.9174 432.433 51.9288 435.234 53.2627C437.809 54.4885 440.029 56.8459 441.055 59.5634C442.081 62.2809 441.877 65.4343 440.577 68.1587C439.313 70.8073 436.88 73.1782 434.048 74.2445C431.104 75.3504 427.908 75.0363 425.334 73.8105Z" fill="black"/>
<path d="M515.667 94.7808L475.379 133.583L481.321 139.736L497.81 123.855L498.858 124.941L493.494 152.345L500.659 159.766L505.758 130.638C512.15 134.843 519.814 134.331 525.613 128.746C527.364 127.059 531.787 122.101 530.494 114.847C529.741 110.565 527.316 106.847 522.598 101.96L515.667 94.7808ZM515.93 106.403L517.969 108.514C520.881 111.531 525.522 117.424 519.844 122.892C513.442 129.058 506.62 122.355 504.989 120.666L503.125 118.736L515.93 106.403Z" fill="black"/>
<path d="M580.037 172.271C572.533 157.272 555.762 151.866 541.054 159.206C526.347 166.547 520.606 183.188 528.11 198.186C535.614 213.185 552.385 218.591 567.092 211.251C581.8 203.911 587.54 187.269 580.037 172.271ZM535.163 194.666C529.798 183.942 533.775 172.398 544.881 166.856C555.987 161.313 567.618 165.067 572.983 175.791C578.348 186.515 574.371 198.059 563.265 203.602C552.16 209.144 540.529 205.39 535.163 194.666Z" fill="black"/>
<path d="M560.899 294.562L562.035 303.715L617.535 270.145L555.344 249.793L556.48 258.947L570.634 263.362L573.577 287.078L560.899 294.562ZM579.058 265.868L598.933 272.11L581.144 282.677L579.058 265.868Z" fill="black"/>
<path d="M605.725 371.209C608.226 370.409 610.377 369.13 611.934 367.844C613.697 366.335 616.463 363.285 617.39 357.32C619 346.963 612.774 340.058 605.315 338.901C597.027 337.616 592.171 343.736 589.557 347.998L586.495 352.953C584.436 356.368 581.446 360.316 575.81 359.443C570.258 358.582 567.146 354.026 567.945 348.889C568.46 345.575 570.147 343.461 572.38 342.195C574.327 341.139 577.051 340.543 579.786 340.967L579.263 332.316C575.399 332.056 571.546 332.816 567.768 335.285C564.18 337.614 561.185 341.053 560.193 347.433C558.583 357.79 564.634 366.365 575.16 367.997C581.458 368.973 587.698 367.056 593.426 357.507L596.526 352.303C599.518 347.251 602.509 347.121 604.167 347.378C607.731 347.931 610.385 351.058 609.586 356.195C609.213 358.597 608.349 360.33 606.67 361.852C605.399 362.928 604.123 363.493 602.803 363.798L605.725 371.209Z" fill="black"/>
<path d="M587.373 434.977L594.869 437.915L607.38 406.073L599.884 403.135L595.192 415.076L550.607 397.6L547.479 405.561L592.065 423.036L587.373 434.977Z" fill="black"/>
<path d="M565.362 491.343L582.511 465.688L535.971 434.655L518.823 460.31L525.521 464.777L537.917 446.233L552.569 456.003L540.546 473.989L547.245 478.456L559.267 460.469L571.059 468.332L558.664 486.876L565.362 491.343Z" fill="black"/>
<path d="M541.702 523.061L503.887 481.846L497.577 487.621L513.055 504.49L511.941 505.509L484.648 499.455L477.039 506.419L506.064 512.252C501.693 518.527 502.011 526.193 507.454 532.125C509.098 533.917 513.948 538.459 521.242 537.353C525.546 536.711 529.33 534.384 534.34 529.798L541.702 523.061ZM530.063 523.027L527.898 525.009C524.805 527.84 518.789 532.323 513.46 526.515C507.45 519.965 514.332 513.325 516.064 511.739L518.044 509.928L530.063 523.027Z" fill="black"/>
<path d="M453.602 579.044C455.754 580.548 458.075 581.485 460.043 581.945C462.312 582.433 466.415 582.786 471.725 579.912C480.944 574.921 482.667 565.788 479.067 559.155C475.067 551.785 467.254 551.628 462.277 552.129L456.477 552.695C452.513 553.125 447.558 553.137 444.838 548.126C442.158 543.188 443.898 537.955 448.471 535.479C451.421 533.882 454.126 533.944 456.487 534.954C458.507 535.863 460.632 537.668 461.952 540.1L468.52 534.446C466.386 531.216 463.446 528.612 459.191 527.101C455.163 525.658 450.611 525.357 444.932 528.432C435.713 533.423 432.556 543.428 437.635 552.788C440.675 558.389 445.982 562.191 457.053 560.965L463.075 560.28C468.908 559.601 470.825 561.901 471.624 563.375C473.344 566.544 472.464 570.548 467.892 573.024C465.753 574.182 463.85 574.544 461.622 574.13C459.996 573.77 458.772 573.098 457.729 572.232L453.602 579.044Z" fill="black"/>
</svg>
