<svg width="320" height="320" viewBox="0 0 320 320" fill="none" xmlns="http://www.w3.org/2000/svg">
<path d="M96.2839 258.889L76.2831 275.106L85.1808 246.509L58.0749 258.986L71.5097 237.071L66.5927 232.741L42.8535 272.025L75.3711 257.177L64.8855 291.428L101.201 263.22L96.2839 258.889Z" fill="#EBDCCA"/>
<path d="M64.1933 222.777L45.3869 220.423C42.3153 220.054 39.8588 219.612 36.3523 219.87C33.4609 220.054 31.0523 220.683 28.4551 222.232C24.4512 224.62 22.8154 227.797 22.1437 230.251C21.4719 232.706 21.1684 236.774 24.0848 241.71C26.4563 245.724 29.6037 247.955 33.2763 248.845C36.7766 249.692 40.8022 249.198 44.4274 247.036C48.1608 244.809 49.9468 241.763 50.6968 238.822C51.2924 236.486 51.5838 232.645 49.052 228.36C48.6674 227.709 48.2608 227.145 47.6819 226.536L63.5889 228.565L64.1933 222.777ZM43.8319 230.299C45.0177 232.306 45.2736 234.721 44.8424 236.592C44.2909 238.755 42.7376 240.708 40.7356 241.902C38.5172 243.225 36.0787 243.433 34.1833 242.949C32.3419 242.434 30.2684 241.03 29.0826 239.023C27.993 237.179 27.5968 234.774 28.0942 232.644C28.5916 230.513 30.0367 228.624 31.9845 227.463C33.8783 226.333 36.383 225.866 38.591 226.383C40.8852 226.922 42.7423 228.455 43.8319 230.299Z" fill="#EBDCCA"/>
<path d="M7.36248 200.475L48.712 192.993L47.5781 186.668L30.654 189.73L30.4539 188.614L45.2548 173.708L43.8875 166.08L28.5316 182.176C26.3024 176.881 21.307 174.007 15.3557 175.084C13.5579 175.41 8.72711 176.668 6.50093 181.744C5.18112 184.736 5.13923 188.073 6.03964 193.096L7.36248 200.475ZM12.056 193.096L11.6669 190.925C11.1111 187.825 10.6797 182.205 16.5071 181.15C23.0784 179.961 24.5316 186.997 24.8428 188.733L25.1986 190.717L12.056 193.096Z" fill="#EBDCCA"/>
<path d="M3.33381 140.451C1.7429 152.951 9.94654 163.342 22.1939 164.915C34.4412 166.489 44.9835 158.506 46.5744 146.007C48.1653 133.508 39.9617 123.117 27.7143 121.543C15.467 119.97 4.92472 127.952 3.33381 140.451ZM40.7007 145.252C39.5632 154.189 32.2532 159.729 23.0052 158.541C13.7572 157.352 8.07003 150.143 9.20753 141.206C10.345 132.269 17.655 126.729 26.903 127.918C36.1509 129.106 41.8382 136.315 40.7007 145.252Z" fill="#EBDCCA"/>
<path d="M63.0303 96.9813L66.1307 90.7835L17.5208 88.5395L47.8665 127.294L50.9669 121.096L43.9703 112.411L52.0032 96.3533L63.0303 96.9813ZM39.7553 107.319L29.9489 95.0975L45.4488 95.9373L39.7553 107.319Z" fill="#EBDCCA"/>
<path d="M57.0725 49.312C55.1808 48.7673 53.3083 48.6687 51.8024 48.8225C50.0764 49.0305 47.0838 49.7844 44.0243 53.1332C38.7127 58.9472 39.7211 65.8761 43.8893 69.7199C48.5206 73.9909 54.0929 72.188 57.4952 70.6122L61.4652 68.7886C64.1685 67.5109 67.6749 66.2881 70.8242 69.1923C73.9271 72.0539 73.9716 76.2084 71.337 79.0921C69.6373 80.9526 67.7065 81.5716 65.7876 81.4303C64.1352 81.2776 62.1895 80.5117 60.6612 79.1023L57.3883 84.7396C59.6887 86.5182 62.4063 87.6532 65.7886 87.6872C68.9933 87.7288 72.291 86.8278 75.563 83.2464C80.8746 77.4324 80.6697 69.5306 74.7879 64.1065C71.2681 60.8605 66.5815 59.4523 59.0392 63.0378L54.9417 65.0009C50.9756 66.9137 49.0572 65.7445 48.1309 64.8903C46.1394 63.0538 45.7856 59.9851 48.4202 57.1014C49.6525 55.7525 50.9115 55.0283 52.5912 54.7776C53.8306 54.6351 54.8615 54.8144 55.8111 55.176L57.0725 49.312Z" fill="#EBDCCA"/>
<path d="M84.4387 28.6992L81.0044 23.7208L59.9107 38.4093L63.345 43.3876L71.2551 37.8794L91.682 67.4902L96.9554 63.8181L76.5286 34.2073L84.4387 28.6992Z" fill="#EBDCCA"/>
<path d="M111.963 11.087L90.5266 19.9175L106.404 58.8234L127.841 49.9929L125.555 44.3932L110.061 50.7762L105.062 38.5269L120.09 32.3359L117.805 26.7363L102.776 32.9273L98.7535 23.0696L114.248 16.6866L111.963 11.087Z" fill="#EBDCCA"/>
<path d="M125.077 7.50493L131.289 49.0642L137.643 48.1055L135.101 31.0955L136.222 30.9263L150.663 46.141L158.325 44.9849L142.713 29.1822C148.071 27.0996 151.095 22.1834 150.201 16.2019C149.931 14.395 148.821 9.52906 143.817 7.16213C140.868 5.75938 137.536 5.62506 132.49 6.38641L125.077 7.50493ZM132.307 12.4031L134.487 12.0742C137.602 11.6042 143.23 11.3284 144.105 17.1853C145.092 23.79 138.019 25.0484 136.274 25.3116L134.281 25.6124L132.307 12.4031Z" fill="#EBDCCA"/>
<path d="M186.027 12.0879C185.313 10.2487 184.257 8.69355 183.221 7.58341C182.01 6.33007 179.597 4.39383 175.081 3.96777C167.24 3.22809 162.346 8.20835 161.818 13.8538C161.232 20.1264 166.043 23.4912 169.357 25.2593L173.213 27.3317C175.867 28.7211 178.965 30.7852 178.566 35.0506C178.173 39.2533 174.899 41.7919 171.01 41.425C168.501 41.1883 166.839 40.019 165.788 38.4011C164.907 36.9892 164.337 34.9737 164.53 32.9037L158.066 33.686C158.047 36.5951 158.793 39.4498 160.816 42.1719C162.726 44.7567 165.441 46.8479 170.271 47.3036C178.111 48.0433 184.266 43.1186 185.011 35.1523C185.456 30.3851 183.734 25.7931 176.312 21.9289L172.268 19.8388C168.344 17.8233 168.11 15.5864 168.227 14.3319C168.479 11.6346 170.703 9.50311 174.592 9.86999C176.411 10.0416 177.75 10.6109 178.967 11.8015C179.832 12.7057 180.314 13.6371 180.603 14.6135L186.027 12.0879Z" fill="#EBDCCA"/>
<path d="M216.601 58.7706L235.438 41.2153L228.531 70.3559L254.715 56.0407L242.821 78.8282L248.025 82.8091L269.003 41.9852L237.583 59.0372L245.685 24.1477L211.397 54.7897L216.601 58.7706Z" fill="#EBDCCA"/>
<path d="M251.197 92.6681L270.116 93.7639C273.204 93.9271 275.685 94.2046 279.166 93.7139C282.038 93.3376 284.399 92.5487 286.887 90.8299C290.723 88.1801 292.144 84.9016 292.651 82.4074C293.157 79.9133 293.19 75.8329 289.952 71.1018C287.319 67.2545 284.03 65.2383 280.307 64.5944C276.759 63.983 272.775 64.7439 269.302 67.1431C265.726 69.6139 264.147 72.7722 263.594 75.7574C263.155 78.1279 263.12 81.9807 265.931 86.088C266.358 86.7118 266.801 87.2479 267.419 87.8164L251.414 86.8514L251.197 92.6681ZM271.01 83.8045C269.693 81.8808 269.277 79.4882 269.583 77.5925C269.989 75.3975 271.409 73.3447 273.327 72.0198C275.452 70.5517 277.871 70.1822 279.794 70.5382C281.666 70.93 283.828 72.1929 285.144 74.1166C286.354 75.8842 286.909 78.2572 286.555 80.4164C286.2 82.5755 284.884 84.5567 283.018 85.8458C281.204 87.0991 278.736 87.7319 276.499 87.3632C274.174 86.9783 272.22 85.5721 271.01 83.8045Z" fill="#EBDCCA"/>
<path d="M309.447 111.209L268.678 121.391L270.221 127.629L286.908 123.462L287.18 124.563L273.383 140.411L275.244 147.933L289.517 130.862C292.086 135.999 297.258 138.539 303.125 137.074C304.898 136.631 309.636 135.058 311.526 129.846C312.648 126.773 312.473 123.441 311.247 118.487L309.447 111.209ZM305.244 118.882L305.774 121.023C306.531 124.081 307.327 129.661 301.581 131.096C295.102 132.714 293.194 125.788 292.771 124.075L292.286 122.118L305.244 118.882Z" fill="#EBDCCA"/>
<path d="M317.488 170.026C318.243 157.449 309.364 147.633 297.039 146.887C284.714 146.14 274.726 154.814 273.972 167.391C273.217 179.968 282.095 189.784 294.421 190.53C306.746 191.277 316.733 182.603 317.488 170.026ZM279.883 167.749C280.422 158.756 287.347 152.738 296.654 153.301C305.961 153.865 312.116 160.675 311.577 169.668C311.037 178.661 304.113 184.679 294.806 184.116C285.499 183.552 279.343 176.742 279.883 167.749Z" fill="#EBDCCA"/>
<path d="M260.966 217.707L258.276 224.094L306.936 223.147L274.121 186.47L271.431 192.857L278.981 201.064L272.012 217.611L260.966 217.707ZM283.52 205.868L294.104 217.419L278.58 217.597L283.52 205.868Z" fill="#EBDCCA"/>
<path d="M269.921 265.28C271.844 265.701 273.719 265.677 275.212 265.426C276.921 265.106 279.858 264.16 282.694 260.619C287.617 254.473 286.161 247.625 281.752 244.06C276.853 240.099 271.409 242.26 268.116 244.053L264.273 246.13C261.658 247.581 258.238 249.029 254.907 246.335C251.624 243.682 251.31 239.539 253.752 236.49C255.327 234.523 257.214 233.78 259.138 233.797C260.797 233.842 262.788 234.48 264.405 235.787L267.305 229.949C264.894 228.324 262.108 227.368 258.731 227.553C255.53 227.72 252.298 228.833 249.265 232.62C244.342 238.766 245.06 246.637 251.281 251.668C255.005 254.678 259.773 255.779 267.067 251.711L271.028 249.486C274.862 247.32 276.853 248.362 277.832 249.154C279.939 250.858 280.491 253.897 278.049 256.945C276.907 258.371 275.698 259.176 274.038 259.535C272.81 259.758 271.77 259.646 270.799 259.347L269.921 265.28Z" fill="#EBDCCA"/>
<path d="M244.273 287.535L248.033 292.272L268.092 276.199L264.331 271.462L256.809 277.49L234.444 249.315L229.429 253.333L251.795 281.508L244.273 287.535Z" fill="#EBDCCA"/>
<path d="M218.484 306.842L239.254 296.541L220.724 258.827L199.954 269.127L202.621 274.556L217.634 267.11L223.468 278.984L208.906 286.206L211.573 291.634L226.135 284.412L230.83 293.968L215.817 301.414L218.484 306.842Z" fill="#EBDCCA"/>
<path d="M205.586 311.46L196.53 270.427L190.258 271.824L193.964 288.619L192.857 288.865L177.406 274.687L169.842 276.372L186.502 291.056C181.301 293.505 178.623 298.62 179.926 304.526C180.32 306.31 181.762 311.088 186.916 313.102C189.954 314.297 193.287 314.2 198.268 313.09L205.586 311.46ZM198.037 307.075L195.885 307.554C192.81 308.239 187.215 308.904 185.939 303.122C184.5 296.601 191.469 294.854 193.191 294.471L195.159 294.032L198.037 307.075Z" fill="#EBDCCA"/>
<path d="M144.024 311.186C144.858 312.973 146.016 314.454 147.123 315.492C148.415 316.662 150.951 318.432 155.486 318.554C163.358 318.767 167.911 313.47 168.063 307.802C168.232 301.504 163.208 298.47 159.783 296.928L155.798 295.118C153.057 293.91 149.83 292.058 149.945 287.775C150.057 283.556 153.156 280.804 157.061 280.909C159.58 280.977 161.316 282.033 162.472 283.576C163.445 284.926 164.148 286.899 164.092 288.977L170.49 287.763C170.316 284.86 169.382 282.061 167.183 279.481C165.105 277.03 162.257 275.125 157.408 274.994C149.536 274.782 143.721 280.108 143.507 288.106C143.379 292.892 145.402 297.358 153.064 300.716L157.238 302.531C161.288 304.279 161.67 306.495 161.636 307.755C161.564 310.463 159.486 312.738 155.581 312.633C153.755 312.583 152.381 312.105 151.087 310.999C150.165 310.155 149.622 309.258 149.269 308.303L144.024 311.186Z" fill="#EBDCCA"/>
</svg>
