<svg width="320" height="321" viewBox="0 0 320 321" fill="none" xmlns="http://www.w3.org/2000/svg">
<g opacity="0.3">
<path d="M153.049 264.587L143.799 288.631L137.241 259.44L119.964 283.809L120.675 258.125L114.25 256.843L113.272 302.71L134.059 273.581L142.062 308.456L159.474 265.87L153.049 264.587Z" fill="#A4AFC1"/>
<path d="M112.431 250.665L94.9663 258.03C92.1217 259.246 89.7731 260.092 86.8649 262.068C84.4527 263.673 82.6815 265.423 81.2066 268.062C78.9329 272.132 79.1043 275.701 79.7497 278.162C80.3952 280.624 82.1667 284.299 87.1604 287.115C91.2212 289.405 95.0624 289.763 98.6884 288.698C102.143 287.681 105.383 285.24 107.441 281.555C109.562 277.76 109.586 274.23 108.764 271.308C108.112 268.987 106.444 265.515 102.109 263.07C101.45 262.699 100.816 262.413 100.011 262.176L114.802 255.98L112.431 250.665ZM98.5577 267.36C100.588 268.505 102.017 270.468 102.579 272.304C103.183 274.453 102.814 276.921 101.677 278.956C100.418 281.211 98.4093 282.61 96.5261 283.139C94.6735 283.613 92.1757 283.434 90.1453 282.289C88.2795 281.237 86.7341 279.353 86.0997 277.259C85.4652 275.165 85.7724 272.807 86.8785 270.827C87.954 268.902 89.8898 267.245 92.0606 266.589C94.317 265.909 96.692 266.308 98.5577 267.36Z" fill="#A4AFC1"/>
<path d="M56.1884 262.389L88.2165 235.187L84.0793 230.27L70.9703 241.404L70.2402 240.536L75.6021 220.195L70.6131 214.266L65.3646 235.916C60.7943 232.441 55.0399 232.452 50.4302 236.367C49.0377 237.55 45.4876 241.061 46.0957 246.578C46.4472 249.834 48.0762 252.748 51.3616 256.653L56.1884 262.389ZM56.5649 253.639L55.1453 251.952C53.1172 249.541 49.9395 244.884 54.4532 241.05C59.5431 236.727 64.3111 242.1 65.4468 243.45L66.7447 244.993L56.5649 253.639Z" fill="#A4AFC1"/>
<path d="M25.1235 214.96C29.9691 226.591 42.2417 231.477 53.6241 226.69C65.0066 221.903 70.1561 209.691 65.3105 198.06C60.4649 186.429 48.1924 181.544 36.8099 186.33C25.4274 191.117 20.2779 203.329 25.1235 214.96ZM59.8516 200.356C63.3162 208.672 59.7478 217.144 51.1529 220.758C42.558 224.373 34.047 220.981 30.5824 212.665C27.1178 204.348 30.6862 195.877 39.2812 192.262C47.8761 188.648 56.387 192.04 59.8516 200.356Z" fill="#A4AFC1"/>
<path d="M57.0986 152.01L56.6996 145.091L13.443 167.551L59.0501 185.847L58.6511 178.929L48.2604 174.927L47.2267 157.002L57.0986 152.01ZM42.0703 172.637L27.4828 166.986L41.3376 159.932L42.0703 172.637Z" fill="#A4AFC1"/>
<path d="M28.3578 117.99C26.4456 118.466 24.7726 119.318 23.5436 120.205C22.1508 121.25 19.9321 123.4 18.951 127.829C17.2477 135.517 21.5812 141.005 27.1145 142.243C33.2627 143.618 37.1946 139.268 39.3581 136.201L41.8902 132.636C43.5965 130.177 46.0265 127.363 50.2073 128.298C54.3265 129.219 56.4391 132.791 55.5943 136.604C55.0492 139.064 53.684 140.567 51.9495 141.405C50.4404 142.101 48.3709 142.413 46.342 141.959L46.3183 148.474C49.201 148.86 52.1242 148.481 55.074 146.817C57.8736 145.248 60.2834 142.817 61.3326 138.081C63.036 130.392 58.9134 123.661 51.1053 121.914C46.4327 120.87 41.6657 121.998 36.9156 128.877L34.3426 132.626C31.8584 136.267 29.6111 136.216 28.3815 135.941C25.7378 135.35 23.899 132.873 24.7439 129.06C25.139 127.276 25.8692 126.019 27.2005 124.961C28.2042 124.217 29.1876 123.856 30.1915 123.693L28.3578 117.99Z" fill="#A4AFC1"/>
<path d="M41.043 89.6046L35.5786 87.0124L24.6461 110.276L30.1104 112.868L34.2101 104.144L66.7116 119.562L69.4447 113.746L36.9433 98.3283L41.043 89.6046Z" fill="#A4AFC1"/>
<path d="M54.1694 62.3609L40.0316 80.7354L73.2188 106.511L87.3566 88.1365L82.58 84.4266L72.3608 97.7082L61.9121 89.5929L71.8239 76.7108L67.0474 73.001L57.1355 85.8831L48.7268 79.3523L58.946 66.0707L54.1694 62.3609Z" fill="#A4AFC1"/>
<path d="M61.9933 54.9897L88.1003 87.9168L93.1173 83.9014L82.4319 70.4246L83.3172 69.716L103.397 75.6739L109.447 70.8319L88.0613 64.9508C91.6561 60.4599 91.8182 54.6817 88.0607 49.9426C86.9256 48.511 83.5384 44.8473 78.0298 45.302C74.7797 45.5632 71.8306 47.1165 67.8465 50.3052L61.9933 54.9897ZM70.6896 55.6148L72.4111 54.237C74.8704 52.2687 79.6003 49.2094 83.2796 53.8498C87.4285 59.0826 81.9386 63.7184 80.5614 64.8206L78.9875 66.0804L70.6896 55.6148Z" fill="#A4AFC1"/>
<path d="M114.609 30.3065C113.075 29.0709 111.386 28.2536 109.938 27.8111C108.265 27.3331 105.213 26.8666 101.093 28.7647C93.9411 32.0601 92.1855 38.8343 94.5398 43.9924C97.1558 49.7236 102.994 50.2246 106.743 50.0928L111.111 49.953C114.099 49.8247 117.807 50.0585 119.586 53.9558C121.339 57.7957 119.769 61.6401 116.222 63.2746C113.933 64.3292 111.912 64.1503 110.197 63.2757C108.733 62.494 107.235 61.0337 106.372 59.1424L101.168 63.0659C102.6 65.5968 104.667 67.6967 107.773 69.0401C110.713 70.3216 114.103 70.771 118.509 68.7411C125.662 65.4457 128.535 58.0869 125.213 50.8082C123.225 46.4525 119.448 43.337 111.102 43.714L106.563 43.9329C102.163 44.1564 100.847 42.335 100.324 41.1888C99.199 38.7244 100.062 35.7602 103.61 34.1257C105.269 33.3612 106.711 33.1824 108.357 33.6031C109.556 33.9527 110.437 34.5178 111.173 35.2193L114.609 30.3065Z" fill="#A4AFC1"/>
<path d="M158.596 58.2942L166.174 33.6701L174.72 62.3344L190.286 36.8308L191.339 62.5L197.837 63.3347L195.666 17.5137L176.925 48.0085L166.547 13.7734L152.097 57.4594L158.596 58.2942Z" fill="#A4AFC1"/>
<path d="M200.191 69.3864L217.13 60.8744C219.888 59.4711 222.175 58.4711 224.946 56.3055C227.246 54.5434 228.898 52.6798 230.194 49.9478C232.192 45.7358 231.784 42.1874 230.976 39.7748C230.169 37.3622 228.156 33.8139 222.986 31.3375C218.781 29.3237 214.924 29.2227 211.377 30.5272C207.996 31.7723 204.926 34.4229 203.116 38.2364C201.253 42.1637 201.464 45.6874 202.477 48.5479C203.282 50.8195 205.178 54.1723 209.667 56.3221C210.349 56.6487 211.001 56.8911 211.82 57.0741L197.471 64.2421L200.191 69.3864ZM212.925 51.8057C210.823 50.7988 209.267 48.9356 208.584 47.1417C207.838 45.0384 208.042 42.5514 209.041 40.4455C210.149 38.1118 212.06 36.5823 213.904 35.9288C215.721 35.3322 218.226 35.3443 220.328 36.3512C222.26 37.2765 223.927 39.053 224.7 41.0994C225.472 43.1458 225.322 45.5189 224.35 47.5679C223.405 49.56 221.583 51.3419 219.46 52.1415C217.254 52.9707 214.857 52.7309 212.925 51.8057Z" fill="#A4AFC1"/>
<path d="M255.628 53.9662L225.449 83.2057L229.898 87.8418L242.251 75.8742L243.036 76.6923L239.016 97.3412L244.382 102.932L248.203 80.9842C252.991 84.1527 258.732 83.7657 263.076 79.5573C264.388 78.2861 267.701 74.5502 266.733 69.0842C266.169 65.8585 264.353 63.0566 260.82 59.375L255.628 53.9662ZM255.825 62.723L257.352 64.3138C259.533 66.5864 263.009 71.0262 258.755 75.1469C253.959 79.7936 248.85 74.7436 247.629 73.471L246.233 72.0165L255.825 62.723Z" fill="#A4AFC1"/>
<path d="M289.445 98.5665C283.834 87.2848 271.265 83.2327 260.229 88.7729C249.194 94.3131 244.873 106.845 250.484 118.127C256.095 129.408 268.664 133.461 279.7 127.92C290.735 122.38 295.056 109.848 289.445 98.5665ZM255.776 115.47C251.764 107.403 254.758 98.71 263.091 94.5266C271.424 90.3432 280.141 93.1572 284.153 101.224C288.165 109.29 285.171 117.983 276.838 122.167C268.505 126.35 259.788 123.536 255.776 115.47Z" fill="#A4AFC1"/>
<path d="M261.984 163.69L262.833 170.568L304.532 145.313L257.834 130.051L258.683 136.929L269.311 140.24L271.51 158.06L261.984 163.69ZM275.637 142.119L290.56 146.799L277.195 154.749L275.637 142.119Z" fill="#A4AFC1"/>
<path d="M292.969 196.099C294.847 195.5 296.461 194.54 297.631 193.575C298.953 192.442 301.028 190.151 301.721 185.669C302.923 177.886 298.244 172.693 292.641 171.819C286.417 170.848 282.774 175.444 280.813 178.646L278.517 182.368C276.973 184.933 274.73 187.899 270.497 187.238C266.326 186.588 263.987 183.162 264.584 179.302C264.968 176.812 266.234 175.224 267.91 174.274C269.372 173.482 271.417 173.035 273.471 173.356L273.073 166.854C270.171 166.656 267.278 167.225 264.442 169.078C261.75 170.826 259.502 173.409 258.761 178.203C257.559 185.985 262.108 192.434 270.014 193.667C274.744 194.405 279.429 192.967 283.725 185.795L286.05 181.885C288.294 178.091 290.54 177.995 291.785 178.189C294.461 178.606 296.456 180.958 295.86 184.818C295.581 186.624 294.934 187.926 293.673 189.068C292.72 189.876 291.762 190.3 290.77 190.528L292.969 196.099Z" fill="#A4AFC1"/>
<path d="M282.361 225.022L287.988 227.24L297.34 203.298L291.713 201.079L288.206 210.058L254.74 196.863L252.402 202.849L285.868 216.043L282.361 225.022Z" fill="#A4AFC1"/>
<path d="M271.426 252.763L284.257 233.454L249.359 210.046L236.528 229.356L241.551 232.725L250.825 218.767L261.813 226.137L252.817 239.675L257.84 243.044L266.835 229.506L275.678 235.437L266.403 249.394L271.426 252.763Z" fill="#A4AFC1"/>
<path d="M264.136 260.792L235.819 229.746L231.091 234.098L242.682 246.806L241.847 247.574L221.405 243.017L215.704 248.265L237.444 252.655C234.168 257.384 234.405 263.16 238.481 267.629C239.712 268.978 243.344 272.4 248.808 271.565C252.032 271.08 254.867 269.327 258.621 265.87L264.136 260.792ZM255.418 260.77L253.796 262.263C251.479 264.397 246.972 267.776 242.981 263.4C238.481 258.466 243.637 253.462 244.935 252.267L246.418 250.902L255.418 260.77Z" fill="#A4AFC1"/>
<path d="M213.027 289.312C214.639 290.442 216.378 291.145 217.853 291.49C219.553 291.855 222.629 292.117 226.613 289.947C233.529 286.181 234.829 279.304 232.137 274.313C229.145 268.769 223.288 268.659 219.557 269.041L215.208 269.472C212.235 269.8 208.521 269.814 206.487 266.044C204.483 262.329 205.792 258.388 209.223 256.52C211.436 255.314 213.463 255.358 215.233 256.116C216.746 256.798 218.337 258.156 219.324 259.985L224.254 255.722C222.657 253.292 220.456 251.335 217.267 250.202C214.249 249.119 210.837 248.897 206.577 251.217C199.661 254.984 197.284 262.519 201.083 269.561C203.356 273.775 207.331 276.631 215.632 275.698L220.147 275.176C224.521 274.659 225.955 276.389 226.553 277.498C227.839 279.882 227.176 282.897 223.745 284.766C222.141 285.639 220.714 285.914 219.044 285.604C217.825 285.335 216.908 284.83 216.128 284.179L213.027 289.312Z" fill="#A4AFC1"/>
</g>
<path d="M153.727 276.916L144.478 300.959L137.919 271.769L120.642 296.138L121.354 270.454L114.929 269.172L113.951 315.038L134.738 285.91L142.741 320.785L160.153 278.198L153.727 276.916Z" fill="black"/>
<path d="M108.202 261.877L90.7372 269.242C87.8926 270.459 85.544 271.304 82.6358 273.28C80.2236 274.885 78.4524 276.635 76.9775 279.275C74.7038 283.345 74.8752 286.913 75.5206 289.375C76.1661 291.836 77.9376 295.511 82.9313 298.327C86.9921 300.617 90.8333 300.975 94.4593 299.91C97.9141 298.893 101.154 296.453 103.212 292.768C105.333 288.973 105.356 285.442 104.535 282.52C103.883 280.2 102.215 276.727 97.8798 274.283C97.2213 273.911 96.587 273.626 95.7814 273.389L110.573 267.192L108.202 261.877ZM94.3286 278.572C96.359 279.717 97.788 281.681 98.3501 283.516C98.9538 285.665 98.5852 288.133 97.4483 290.168C96.1885 292.423 94.1802 293.822 92.2969 294.351C90.4444 294.825 87.9465 294.646 85.9162 293.501C84.0504 292.449 82.505 290.565 81.8706 288.471C81.2361 286.378 81.5433 284.02 82.6494 282.04C83.7249 280.115 85.6607 278.458 87.8315 277.802C90.0879 277.121 92.4629 277.52 94.3286 278.572Z" fill="black"/>
<path d="M47.4622 271.886L79.4903 244.683L75.3531 239.766L62.2442 250.9L61.5141 250.033L66.8759 229.691L61.887 223.762L56.6384 245.412C52.0682 241.937 46.3138 241.948 41.7041 245.863C40.3115 247.046 36.7615 250.557 37.3695 256.074C37.7211 259.33 39.3501 262.245 42.6355 266.149L47.4622 271.886ZM47.8387 263.135L46.4191 261.448C44.3911 259.038 41.2133 254.38 45.727 250.547C50.817 246.224 55.5849 251.597 56.7206 252.947L58.0186 254.489L47.8387 263.135Z" fill="black"/>
<path d="M14.1183 221.901C18.9639 233.532 31.2365 238.418 42.619 233.631C54.0014 228.844 59.151 216.632 54.3054 205.001C49.4598 193.37 37.1872 188.485 25.8047 193.272C14.4223 198.058 9.27273 210.27 14.1183 221.901ZM48.8465 207.297C52.3111 215.613 48.7426 224.085 40.1477 227.699C31.5528 231.314 23.0419 227.922 19.5773 219.606C16.1127 211.289 19.6811 202.818 28.276 199.203C36.8709 195.589 45.3819 198.981 48.8465 207.297Z" fill="black"/>
<path d="M44.2598 154.304L43.8608 147.386L0.604208 169.846L46.2113 188.142L45.8123 181.224L35.4216 177.222L34.3879 159.297L44.2598 154.304ZM29.2315 174.932L14.644 169.281L28.4988 162.227L29.2315 174.932Z" fill="black"/>
<path d="M15.3551 116.051C13.4429 116.527 11.7699 117.379 10.5409 118.266C9.14811 119.31 6.92942 121.461 5.94832 125.89C4.245 133.578 8.57855 139.066 14.1119 140.304C20.26 141.679 24.1919 137.329 26.3555 134.262L28.8876 130.697C30.5938 128.238 33.0238 125.424 37.2046 126.359C41.3238 127.28 43.4364 130.852 42.5916 134.665C42.0465 137.125 40.6813 138.628 38.9468 139.466C37.4377 140.162 35.3683 140.474 33.3394 140.02L33.3157 146.535C36.1983 146.921 39.1215 146.542 42.0714 144.878C44.871 143.309 47.2807 140.878 48.33 136.142C50.0333 128.453 45.9108 121.721 38.1026 119.975C33.43 118.93 28.663 120.059 23.9129 126.938L21.3399 130.687C18.8557 134.328 16.6085 134.277 15.3788 134.002C12.7351 133.411 10.8964 130.934 11.7412 127.121C12.1364 125.337 12.8665 124.08 14.1979 123.022C15.2015 122.278 16.1849 121.917 17.1889 121.754L15.3551 116.051Z" fill="black"/>
<path d="M28.7875 84.4686L23.3232 81.8764L12.3907 105.14L17.855 107.732L21.9547 99.0081L54.4562 114.426L57.1893 108.61L24.6878 93.1923L28.7875 84.4686Z" fill="black"/>
<path d="M43.0397 54.7745L28.9019 73.1489L62.089 98.9245L76.2268 80.55L71.4503 76.8402L61.2311 90.1217L50.7824 82.0065L60.6942 69.1244L55.9177 65.4146L46.0058 78.2967L37.5971 71.7658L47.8163 58.4843L43.0397 54.7745Z" fill="black"/>
<path d="M52.7997 44.8683L78.9067 77.7953L83.9237 73.78L73.2383 60.3031L74.1236 59.5945L94.2037 65.5525L100.254 60.7104L78.8677 54.8293C82.4625 50.3384 82.6246 44.5602 78.8671 39.8211C77.732 38.3895 74.3448 34.7258 68.8362 35.1806C65.5861 35.4417 62.637 36.9951 58.6529 40.1837L52.7997 44.8683ZM61.496 45.4933L63.2175 44.1155C65.6768 42.1472 70.4067 39.0879 74.086 43.7283C78.2349 48.9611 72.7451 53.5969 71.3678 54.6992L69.7939 55.9589L61.496 45.4933Z" fill="black"/>
<path d="M108.46 18.9972C106.926 17.7616 105.237 16.9443 103.789 16.5018C102.116 16.0238 99.064 15.5573 94.9442 17.4554C87.7919 20.7508 86.0363 27.525 88.3906 32.6831C91.0066 38.4143 96.8447 38.9153 100.593 38.7835L104.962 38.6437C107.95 38.5154 111.658 38.7492 113.437 42.6465C115.19 46.4864 113.62 50.3308 110.073 51.9653C107.784 53.0198 105.763 52.841 104.048 51.9664C102.583 51.1847 101.086 49.7244 100.223 47.8331L95.019 51.7566C96.4512 54.2875 98.5177 56.3874 101.624 57.7308C104.563 59.0123 107.954 59.4617 112.36 57.4318C119.512 54.1364 122.386 46.7776 119.064 39.4989C117.076 35.1432 113.299 32.0277 104.953 32.4047L100.413 32.6236C96.014 32.8471 94.6978 31.0257 94.1746 29.8795C93.0498 27.4151 93.9129 24.4509 97.4605 22.8164C99.1198 22.0519 100.562 21.8731 102.208 22.2938C103.406 22.6434 104.288 23.2085 105.023 23.91L108.46 18.9972Z" fill="black"/>
<path d="M158.084 44.9321L165.663 20.3081L174.209 48.9724L189.775 23.4687L190.827 49.1379L197.325 49.9727L195.154 4.15169L176.413 34.6465L166.035 0.411424L151.585 44.0974L158.084 44.9321Z" fill="black"/>
<path d="M204.67 56.7985L221.609 48.2865C224.367 46.8831 226.654 45.8832 229.425 43.7176C231.725 41.9555 233.377 40.0919 234.673 37.3599C236.672 33.1479 236.263 29.5995 235.456 27.1869C234.648 24.7743 232.636 21.226 227.465 18.7496C223.26 16.7357 219.403 16.6347 215.856 17.9392C212.476 19.1843 209.405 21.8349 207.596 25.6484C205.732 29.5758 205.943 33.0995 206.957 35.96C207.761 38.2315 209.657 41.5843 214.146 43.7342C214.828 44.0608 215.48 44.3032 216.299 44.4862L201.951 51.6542L204.67 56.7985ZM217.405 39.2178C215.302 38.2109 213.746 36.3477 213.063 34.5537C212.318 32.4504 212.521 29.9635 213.521 27.8575C214.628 25.5239 216.539 23.9944 218.383 23.3409C220.2 22.7443 222.705 22.7564 224.807 23.7633C226.739 24.6886 228.406 26.4651 229.179 28.5115C229.951 30.5578 229.801 32.931 228.829 34.98C227.884 36.9721 226.062 38.754 223.939 39.5536C221.733 40.3828 219.336 40.143 217.405 39.2178Z" fill="black"/>
<path d="M264.719 42.7909L234.539 72.0304L238.989 76.6665L251.342 64.6989L252.127 65.517L248.107 86.1659L253.473 91.7565L257.294 69.8089C262.082 72.9774 267.823 72.5904 272.167 68.382C273.479 67.1108 276.791 63.3749 275.824 57.9089C275.26 54.6832 273.444 51.8813 269.911 48.1997L264.719 42.7909ZM264.916 51.5477L266.443 53.1385C268.624 55.4111 272.099 59.8509 267.846 63.9716C263.05 68.6183 257.941 63.5683 256.719 62.2957L255.323 60.8412L264.916 51.5477Z" fill="black"/>
<path d="M300.945 89.7207C295.334 78.439 282.764 74.3869 271.729 79.9271C260.694 85.4673 256.372 97.9993 261.983 109.281C267.594 120.563 280.164 124.615 291.199 119.075C302.235 113.534 306.556 101.002 300.945 89.7207ZM267.276 106.624C263.264 98.5575 266.258 89.8642 274.591 85.6808C282.923 81.4974 291.641 84.3113 295.652 92.3778C299.664 100.444 296.67 109.138 288.338 113.321C280.005 117.504 271.288 114.69 267.276 106.624Z" fill="black"/>
<path d="M275.656 159.379L276.504 166.256L318.204 141.002L271.506 125.74L272.354 132.617L282.983 135.928L285.181 153.748L275.656 159.379ZM289.308 137.807L304.232 142.488L290.866 150.437L289.308 137.807Z" fill="black"/>
<path d="M307.091 196.04C308.969 195.441 310.583 194.481 311.752 193.516C313.075 192.383 315.15 190.092 315.843 185.61C317.045 177.827 312.365 172.634 306.763 171.76C300.538 170.789 296.896 175.385 294.935 178.587L292.639 182.309C291.095 184.874 288.852 187.84 284.619 187.179C280.448 186.529 278.109 183.103 278.705 179.243C279.09 176.753 280.355 175.165 282.032 174.215C283.493 173.422 285.538 172.976 287.593 173.297L287.195 166.795C284.293 166.597 281.4 167.166 278.564 169.019C275.871 170.767 273.624 173.35 272.883 178.144C271.68 185.926 276.23 192.374 284.135 193.608C288.866 194.345 293.551 192.908 297.846 185.736L300.172 181.826C302.415 178.032 304.661 177.936 305.906 178.13C308.583 178.547 310.578 180.899 309.982 184.759C309.703 186.565 309.055 187.867 307.795 189.009C306.842 189.817 305.884 190.241 304.892 190.469L307.091 196.04Z" fill="black"/>
<path d="M295.959 228.178L301.586 230.396L310.938 206.454L305.311 204.235L301.804 213.214L268.339 200.019L266.001 206.005L299.466 219.199L295.959 228.178Z" fill="black"/>
<path d="M284.093 258.404L296.925 239.095L262.027 215.687L249.196 234.997L254.219 238.366L263.493 224.408L274.48 231.778L265.485 245.315L270.508 248.684L279.503 235.147L288.345 241.078L279.071 255.035L284.093 258.404Z" fill="black"/>
<path d="M275.049 269.111L246.731 238.064L242.004 242.417L253.594 255.124L252.76 255.892L232.317 251.335L226.617 256.584L248.357 260.974C245.081 265.702 245.318 271.478 249.394 275.947C250.625 277.297 254.257 280.718 259.721 279.883C262.945 279.398 265.779 277.645 269.534 274.189L275.049 269.111ZM266.331 269.088L264.709 270.581C262.391 272.715 257.884 276.094 253.893 271.718C249.393 266.784 254.549 261.78 255.847 260.585L257.33 259.22L266.331 269.088Z" fill="black"/>
<path d="M220.958 299.056C222.57 300.187 224.309 300.89 225.783 301.234C227.484 301.6 230.56 301.861 234.543 299.692C241.459 295.926 242.76 289.048 240.068 284.058C237.076 278.514 231.219 278.404 227.488 278.786L223.139 279.217C220.166 279.545 216.452 279.559 214.418 275.789C212.413 272.074 213.723 268.132 217.153 266.264C219.367 265.059 221.394 265.103 223.163 265.861C224.677 266.543 226.268 267.9 227.255 269.73L232.185 265.467C230.588 263.037 228.386 261.08 225.198 259.946C222.18 258.864 218.768 258.642 214.508 260.962C207.592 264.728 205.215 272.264 209.013 279.305C211.287 283.519 215.262 286.376 223.563 285.442L228.078 284.921C232.452 284.404 233.886 286.133 234.484 287.242C235.77 289.626 235.107 292.642 231.676 294.51C230.072 295.384 228.645 295.659 226.975 295.349C225.756 295.08 224.839 294.575 224.059 293.924L220.958 299.056Z" fill="black"/>
</svg>
