<svg width="288" height="289" viewBox="0 0 288 289" fill="none" xmlns="http://www.w3.org/2000/svg">
<g opacity="0.3">
<path d="M138.974 232.073L129.724 256.116L123.166 226.926L105.889 251.294L106.601 225.611L100.175 224.328L99.1974 270.195L119.985 241.067L127.988 275.942L145.399 233.355L138.974 232.073Z" fill="#A4AFC1"/>
<path d="M104.447 219.605L86.9817 226.97C84.1371 228.187 81.7885 229.032 78.8803 231.008C76.4682 232.613 74.6969 234.363 73.2221 237.003C70.9483 241.073 71.1197 244.641 71.7651 247.103C72.4106 249.564 74.1821 253.239 79.1758 256.055C83.2366 258.345 87.0778 258.703 90.7038 257.638C94.1586 256.621 97.3982 254.181 99.4569 250.496C101.577 246.701 101.601 243.17 100.78 240.248C100.128 237.928 98.4595 234.455 94.1244 232.011C93.4658 231.639 92.8315 231.354 92.0259 231.117L106.817 224.92L104.447 219.605ZM90.5731 236.3C92.6035 237.445 94.0326 239.409 94.5946 241.244C95.1983 243.393 94.8297 245.861 93.6928 247.896C92.433 250.151 90.4247 251.55 88.5415 252.079C86.689 252.553 84.1911 252.374 82.1607 251.229C80.2949 250.177 78.7496 248.293 78.1151 246.199C77.4807 244.106 77.7878 241.747 78.894 239.768C79.9694 237.843 81.9053 236.186 84.076 235.53C86.3324 234.849 88.7074 235.248 90.5731 236.3Z" fill="#A4AFC1"/>
<path d="M52.9252 234.405L84.9533 207.203L80.8161 202.286L67.7072 213.42L66.9771 212.552L72.339 192.211L67.35 186.281L62.1014 207.931C57.5312 204.457 51.7768 204.467 47.1671 208.383C45.7746 209.565 42.2245 213.076 42.8325 218.594C43.1841 221.849 44.8131 224.764 48.0985 228.669L52.9252 234.405ZM53.3018 225.655L51.8821 223.967C49.8541 221.557 46.6763 216.9 51.1901 213.066C56.28 208.743 61.048 214.116 62.1837 215.466L63.4816 217.009L53.3018 225.655Z" fill="#A4AFC1"/>
<path d="M24.5459 190.032C29.3915 201.663 41.6641 206.548 53.0465 201.762C64.429 196.975 69.5785 184.763 64.7329 173.132C59.8873 161.501 47.6148 156.615 36.2323 161.402C24.8498 166.189 19.7003 178.401 24.5459 190.032ZM59.274 175.427C62.7386 183.744 59.1702 192.215 50.5753 195.83C41.9803 199.444 33.4694 196.052 30.0048 187.736C26.5402 179.42 30.1086 170.948 38.7035 167.334C47.2985 163.719 55.8094 167.111 59.274 175.427Z" fill="#A4AFC1"/>
<path d="M58.6525 132.558L58.2535 125.64L14.9969 148.1L60.6039 166.396L60.2049 159.478L49.8143 155.476L48.7805 137.551L58.6525 132.558ZM43.6242 153.186L29.0366 147.535L42.8915 140.481L43.6242 153.186Z" fill="#A4AFC1"/>
<path d="M30.0861 103.516C28.1738 103.992 26.5008 104.844 25.2718 105.732C23.879 106.776 21.6603 108.926 20.6792 113.355C18.9759 121.044 23.3095 126.532 28.8428 127.769C34.9909 129.144 38.9228 124.794 41.0864 121.727L43.6185 118.162C45.3247 115.703 47.7548 112.89 51.9355 113.825C56.0548 114.746 58.1674 118.317 57.3225 122.13C56.7775 124.591 55.4122 126.093 53.6777 126.932C52.1686 127.627 50.0992 127.939 48.0703 127.485L48.0466 134C50.9292 134.387 53.8525 134.007 56.8023 132.343C59.6019 130.774 62.0117 128.343 63.0609 123.607C64.7642 115.919 60.6417 109.187 52.8336 107.441C48.161 106.396 43.394 107.525 38.6438 114.403L36.0708 118.153C33.5866 121.793 31.3394 121.743 30.1097 121.468C27.466 120.876 25.6273 118.399 26.4721 114.586C26.8673 112.802 27.5974 111.545 28.9288 110.487C29.9324 109.743 30.9158 109.382 31.9198 109.219L30.0861 103.516Z" fill="#A4AFC1"/>
<path d="M41.8787 78.8906L36.4143 76.2984L25.4818 99.5616L30.9461 102.154L35.0458 93.43L67.5473 108.848L70.2804 103.032L37.779 87.6142L41.8787 78.8906Z" fill="#A4AFC1"/>
<path d="M53.6605 54.5413L39.5227 72.9157L72.7098 98.6913L86.8476 80.3168L82.071 76.607L71.8519 89.8885L61.4031 81.7733L71.315 68.8912L66.5384 65.1814L56.6266 78.0635L48.2179 71.5326L58.437 58.2511L53.6605 54.5413Z" fill="#A4AFC1"/>
<path d="M59.1842 50.1532L85.2912 83.0802L90.3082 79.0648L79.6227 65.588L80.5081 64.8794L100.588 70.8374L106.638 65.9953L85.2522 60.1142C88.847 55.6233 89.0091 49.8451 85.2516 45.106C84.1165 43.6744 80.7292 40.0107 75.2207 40.4655C71.9706 40.7266 69.0215 42.28 65.0374 45.4686L59.1842 50.1532ZM67.8805 50.7782L69.602 49.4004C72.0613 47.4321 76.7912 44.3728 80.4704 49.0132C84.6194 54.246 79.1295 58.8818 77.7523 59.9841L76.1783 61.2438L67.8805 50.7782Z" fill="#A4AFC1"/>
<path d="M108.689 27.9299C107.156 26.6943 105.467 25.877 104.018 25.4345C102.346 24.9565 99.2935 24.49 95.1737 26.3881C88.0214 29.6835 86.2658 36.4577 88.6201 41.6158C91.2361 47.347 97.0741 47.848 100.823 47.7162L105.191 47.5764C108.18 47.448 111.888 47.6819 113.666 51.5791C115.419 55.419 113.85 59.2635 110.302 60.898C108.013 61.9525 105.993 61.7737 104.278 60.8991C102.813 60.1173 101.315 58.657 100.452 56.7657L95.2485 60.6892C96.6807 63.2202 98.7472 65.3201 101.853 66.6635C104.793 67.945 108.184 68.3944 112.59 66.3644C119.742 63.0691 122.616 55.7103 119.293 48.4316C117.305 44.0759 113.529 40.9604 105.183 41.3374L100.643 41.5563C96.2434 41.7798 94.9273 39.9584 94.4041 38.8122C93.2793 36.3477 94.1424 33.3836 97.6899 31.7491C99.3493 30.9845 100.791 30.8057 102.438 31.2264C103.636 31.576 104.517 32.1411 105.253 32.8427L108.689 27.9299Z" fill="#A4AFC1"/>
<path d="M145.334 58.3959L152.913 33.7719L161.459 62.4362L177.025 36.9325L178.077 62.6017L184.576 63.4365L182.404 17.6155L163.663 48.1103L153.286 13.8752L138.835 57.5612L145.334 58.3959Z" fill="#A4AFC1"/>
<path d="M180.731 68.4559L197.67 59.9439C200.428 58.5406 202.715 57.5406 205.486 55.375C207.786 53.6129 209.438 51.7493 210.734 49.0173C212.732 44.8053 212.324 41.2569 211.516 38.8443C210.709 36.4317 208.697 32.8834 203.526 30.407C199.321 28.3932 195.464 28.2922 191.917 29.5967C188.537 30.8418 185.466 33.4924 183.656 37.3059C181.793 41.2332 182.004 44.7569 183.017 47.6174C183.822 49.889 185.718 53.2418 190.207 55.3916C190.889 55.7182 191.541 55.9606 192.36 56.1436L178.011 63.3116L180.731 68.4559ZM193.466 50.8752C191.363 49.8683 189.807 48.0051 189.124 46.2112C188.378 44.1079 188.582 41.6209 189.581 39.515C190.689 37.1813 192.6 35.6518 194.444 34.9983C196.261 34.4018 198.766 34.4138 200.868 35.4207C202.8 36.346 204.467 38.1225 205.24 40.1689C206.012 42.2153 205.862 44.5884 204.89 46.6374C203.945 48.6296 202.123 50.4114 200 51.211C197.794 52.0402 195.397 51.8005 193.466 50.8752Z" fill="#A4AFC1"/>
<path d="M231.242 50.2815L201.062 79.521L205.512 84.157L217.864 72.1895L218.649 73.0076L214.629 93.6565L219.995 99.2471L223.817 77.2995C228.604 80.4679 234.345 80.081 238.689 75.8726C240.001 74.6013 243.314 70.8655 242.346 65.3995C241.783 62.1738 239.967 59.3719 236.433 55.6903L231.242 50.2815ZM231.438 59.0383L232.965 60.6291C235.146 62.9017 238.622 67.3415 234.369 71.4622C229.572 76.1089 224.463 71.0589 223.242 69.7863L221.846 68.3318L231.438 59.0383Z" fill="#A4AFC1"/>
<path d="M262.216 92.09C256.605 80.8083 244.036 76.7562 233 82.2964C221.965 87.8366 217.644 100.369 223.255 111.65C228.866 122.932 241.435 126.984 252.471 121.444C263.506 115.904 267.827 103.372 262.216 92.09ZM228.547 108.993C224.535 100.927 227.529 92.2335 235.862 88.05C244.195 83.8666 252.912 86.6806 256.924 94.747C260.936 102.813 257.942 111.507 249.609 115.69C241.276 119.874 232.559 117.06 228.547 108.993Z" fill="#A4AFC1"/>
<path d="M232.226 151.867L233.074 158.744L274.774 133.49L228.076 118.228L228.925 125.105L239.553 128.416L241.751 146.236L232.226 151.867ZM245.879 130.295L260.802 134.976L247.437 142.925L245.879 130.295Z" fill="#A4AFC1"/>
<path d="M262.7 179.277C264.578 178.677 266.192 177.717 267.361 176.752C268.684 175.619 270.759 173.329 271.452 168.846C272.654 161.063 267.974 155.87 262.372 154.996C256.147 154.025 252.505 158.622 250.544 161.823L248.248 165.545C246.704 168.11 244.461 171.076 240.228 170.415C236.057 169.765 233.718 166.339 234.314 162.479C234.699 159.989 235.965 158.401 237.641 157.451C239.102 156.659 241.147 156.212 243.202 156.533L242.804 150.031C239.902 149.833 237.009 150.402 234.173 152.255C231.48 154.003 229.233 156.586 228.492 161.38C227.289 169.162 231.839 175.611 239.744 176.844C244.475 177.582 249.16 176.144 253.455 168.972L255.781 165.062C258.024 161.268 260.27 161.172 261.515 161.366C264.192 161.784 266.187 164.135 265.591 167.995C265.312 169.801 264.664 171.103 263.404 172.245C262.451 173.053 261.493 173.477 260.501 173.705L262.7 179.277Z" fill="#A4AFC1"/>
<path d="M252.72 204.417L258.347 206.636L267.699 182.693L262.072 180.475L258.565 189.453L225.1 176.259L222.762 182.244L256.227 195.439L252.72 204.417Z" fill="#A4AFC1"/>
<path d="M242.9 229.222L255.732 209.912L220.834 186.505L208.003 205.814L213.025 209.183L222.3 195.226L233.287 202.596L224.292 216.133L229.314 219.502L238.31 205.965L247.152 211.895L237.878 225.853L242.9 229.222Z" fill="#A4AFC1"/>
<path d="M237.698 234.1L209.38 203.053L204.653 207.406L216.243 220.113L215.409 220.881L194.966 216.324L189.265 221.573L211.005 225.963C207.729 230.692 207.967 236.467 212.042 240.936C213.274 242.286 216.906 245.707 222.369 244.873C225.594 244.388 228.428 242.634 232.182 239.178L237.698 234.1ZM228.979 234.077L227.357 235.57C225.04 237.704 220.533 241.083 216.542 236.707C212.042 231.774 217.198 226.769 218.496 225.575L219.979 224.209L228.979 234.077Z" fill="#A4AFC1"/>
<path d="M189.556 259.912C191.168 261.043 192.907 261.745 194.381 262.09C196.082 262.455 199.158 262.717 203.141 260.548C210.057 256.781 211.358 249.904 208.666 244.914C205.674 239.369 199.817 239.259 196.086 239.641L191.737 240.073C188.764 240.4 185.05 240.415 183.016 236.644C181.011 232.929 182.321 228.988 185.751 227.12C187.965 225.915 189.992 225.958 191.761 226.716C193.275 227.399 194.866 228.756 195.853 230.586L200.783 226.323C199.186 223.893 196.985 221.935 193.796 220.802C190.778 219.72 187.366 219.498 183.106 221.818C176.19 225.584 173.813 233.12 177.612 240.161C179.885 244.375 183.86 247.232 192.161 246.298L196.676 245.776C201.05 245.259 202.484 246.989 203.082 248.098C204.368 250.482 203.705 253.498 200.274 255.366C198.67 256.24 197.243 256.514 195.573 256.205C194.354 255.936 193.437 255.431 192.657 254.78L189.556 259.912Z" fill="#A4AFC1"/>
</g>
<path d="M139.301 244.209L130.051 268.253L123.493 239.062L106.216 263.431L106.927 237.747L100.502 236.465L99.5243 282.332L120.312 253.203L128.314 288.078L145.726 245.492L139.301 244.209Z" fill="black"/>
<path d="M100.076 230.617L82.6106 237.981C79.766 239.198 77.4175 240.043 74.5093 242.02C72.0971 243.625 70.3259 245.374 68.851 248.014C66.5772 252.084 66.7486 255.652 67.3941 258.114C68.0395 260.575 69.8111 264.251 74.8047 267.067C78.8655 269.357 82.7067 269.715 86.3327 268.649C89.7876 267.632 93.0272 265.192 95.0859 261.507C97.206 257.712 97.2299 254.182 96.4089 251.259C95.7568 248.939 94.0885 245.467 89.7533 243.022C89.0948 242.651 88.4604 242.365 87.6549 242.128L102.446 235.932L100.076 230.617ZM86.2021 247.312C88.2325 248.457 89.6615 250.42 90.2235 252.256C90.8273 254.404 90.4586 256.872 89.3218 258.907C88.062 261.162 86.0537 262.561 84.1704 263.09C82.3179 263.565 79.82 263.385 77.7896 262.24C75.9239 261.188 74.3785 259.304 73.7441 257.211C73.1096 255.117 73.4168 252.759 74.5229 250.779C75.5983 248.854 77.5342 247.197 79.705 246.541C81.9614 245.86 84.3363 246.26 86.2021 247.312Z" fill="black"/>
<path d="M44.9088 243.038L76.9369 215.836L72.7997 210.919L59.6908 222.052L58.9607 221.185L64.3225 200.844L59.3336 194.914L54.085 216.564C49.5148 213.09 43.7604 213.1 39.1507 217.015C37.7582 218.198 34.2081 221.709 34.8161 227.227C35.1677 230.482 36.7967 233.397 40.0821 237.302L44.9088 243.038ZM45.2853 234.287L43.8657 232.6C41.8377 230.19 38.6599 225.533 43.1736 221.699C48.2636 217.376 53.0315 222.749 54.1672 224.099L55.4652 225.641L45.2853 234.287Z" fill="black"/>
<path d="M14.4556 196.299C19.3012 207.93 31.5738 212.815 42.9562 208.029C54.3387 203.242 59.4883 191.03 54.6427 179.399C49.7971 167.768 37.5245 162.882 26.142 167.669C14.7595 172.456 9.60998 184.668 14.4556 196.299ZM49.1837 181.695C52.6483 190.011 49.0799 198.482 40.485 202.097C31.8901 205.711 23.3791 202.319 19.9145 194.003C16.4499 185.687 20.0183 177.215 28.6133 173.601C37.2082 169.987 45.7191 173.378 49.1837 181.695Z" fill="black"/>
<path d="M46.9194 134.595L46.5204 127.677L3.26378 150.137L48.8708 168.433L48.4719 161.515L38.0812 157.513L37.0475 139.588L46.9194 134.595ZM31.8911 155.223L17.3035 149.572L31.1584 142.518L31.8911 155.223Z" fill="black"/>
<path d="M18.2208 101.71C16.3085 102.186 14.6356 103.039 13.4066 103.926C12.0137 104.97 9.79506 107.121 8.81395 111.549C7.11064 119.238 11.4442 124.726 16.9775 125.963C23.1257 127.338 27.0576 122.988 29.2211 119.922L31.7532 116.356C33.4594 113.897 35.8895 111.084 40.0702 112.019C44.1895 112.94 46.3021 116.511 45.4572 120.325C44.9122 122.785 43.5469 124.287 41.8125 125.126C40.3033 125.821 38.2339 126.133 36.205 125.679L36.1813 132.194C39.064 132.581 41.9872 132.202 44.937 130.537C47.7366 128.968 50.1464 126.538 51.1956 121.801C52.8989 114.113 48.7764 107.381 40.9683 105.635C36.2957 104.59 31.5287 105.719 26.7785 112.597L24.2056 116.347C21.7213 119.987 19.4741 119.937 18.2445 119.662C15.6008 119.071 13.762 116.594 14.6068 112.78C15.002 110.996 15.7322 109.739 17.0635 108.681C18.0672 107.938 19.0505 107.576 20.0545 107.414L18.2208 101.71Z" fill="black"/>
<path d="M30.7034 74.1822L25.2391 71.59L14.3065 94.8532L19.7709 97.4454L23.8706 88.7217L56.372 104.14L59.1052 98.3238L26.6037 82.9059L30.7034 74.1822Z" fill="black"/>
<path d="M43.5269 47.5964L29.3891 65.9709L62.5762 91.7464L76.714 73.372L71.9375 69.6621L61.7183 82.9437L51.2696 74.8284L61.1814 61.9464L56.4048 58.2365L46.493 71.1186L38.0843 64.5878L48.3034 51.3062L43.5269 47.5964Z" fill="black"/>
<path d="M50.829 40.9051L76.936 73.8321L81.9531 69.8167L71.2676 56.3399L72.153 55.6313L92.2331 61.5892L98.283 56.7472L76.897 50.8661C80.4918 46.3752 80.654 40.597 76.8964 35.8579C75.7613 34.4263 72.3741 30.7626 66.8656 31.2173C63.6155 31.4785 60.6663 33.0318 56.6822 36.2205L50.829 40.9051ZM59.5253 41.5301L61.2468 40.1523C63.7062 38.184 68.436 35.1247 72.1153 39.7651C76.2642 44.9979 70.7744 49.6337 69.3972 50.736L67.8232 51.9957L59.5253 41.5301Z" fill="black"/>
<path d="M102.738 16.7834C101.204 15.5477 99.5151 14.7305 98.0667 14.288C96.3942 13.81 93.3419 13.3434 89.2221 15.2416C82.0698 18.5369 80.3142 25.3112 82.6686 30.4693C85.2845 36.2005 91.1226 36.7014 94.8713 36.5697L99.2396 36.4299C102.228 36.3015 105.936 36.5354 107.715 40.4326C109.467 44.2725 107.898 48.117 104.351 49.7515C102.062 50.806 100.041 50.6272 98.3262 49.7526C96.8613 48.9708 95.3637 47.5105 94.5005 45.6192L89.2969 49.5427C90.7291 52.0736 92.7956 54.1735 95.9019 55.517C98.8414 56.7985 102.232 57.2479 106.638 55.2179C113.79 51.9225 116.664 44.5637 113.342 37.2851C111.354 32.9294 107.577 29.8139 99.2312 30.1909L94.6912 30.4098C90.2919 30.6333 88.9757 28.8119 88.4526 27.6656C87.3277 25.2012 88.1908 22.237 91.7384 20.6025C93.3977 19.838 94.8396 19.6592 96.486 20.0799C97.6843 20.4295 98.5655 20.9946 99.3012 21.6961L102.738 16.7834Z" fill="black"/>
<path d="M145.06 45.3401L152.639 20.7161L161.185 49.3804L176.751 23.8767L177.803 49.5459L184.301 50.3807L182.13 4.5597L163.389 35.0545L153.011 0.819436L138.561 44.5054L145.06 45.3401Z" fill="black"/>
<path d="M185.239 56.1992L202.178 47.6873C204.936 46.2839 207.224 45.2839 209.994 43.1183C212.295 41.3562 213.946 39.4926 215.242 36.7606C217.241 32.5487 216.833 29.0002 216.025 26.5876C215.217 24.175 213.205 20.6267 208.034 18.1503C203.83 16.1365 199.973 16.0355 196.425 17.34C193.045 18.5851 189.974 21.2357 188.165 25.0492C186.301 28.9765 186.512 32.5002 187.526 35.3607C188.331 37.6323 190.227 40.9851 194.715 43.1349C195.397 43.4615 196.049 43.7039 196.869 43.8869L182.52 51.0549L185.239 56.1992ZM197.974 38.6185C195.872 37.6116 194.315 35.7484 193.632 33.9545C192.887 31.8512 193.091 29.3642 194.09 27.2582C195.197 24.9246 197.108 23.3951 198.952 22.7416C200.77 22.145 203.274 22.1571 205.377 23.164C207.308 24.0893 208.976 25.8658 209.748 27.9122C210.52 29.9586 210.371 32.3317 209.398 34.3807C208.453 36.3729 206.631 38.1547 204.509 38.9543C202.302 39.7835 199.906 39.5438 197.974 38.6185Z" fill="black"/>
<path d="M239.555 40.1552L209.376 69.3946L213.825 74.0307L226.178 62.0631L226.963 62.8813L222.943 83.5302L228.309 89.1207L232.13 67.1731C236.918 70.3416 242.659 69.9547 247.003 65.7463C248.315 64.475 251.628 60.7391 250.66 55.2731C250.096 52.0474 248.28 49.2455 244.747 45.5639L239.555 40.1552ZM239.752 48.912L241.279 50.5028C243.46 52.7754 246.935 57.2151 242.682 61.3358C237.886 65.9826 232.777 60.9326 231.556 59.6599L230.16 58.2055L239.752 48.912Z" fill="black"/>
<path d="M272.725 84.1256C267.114 72.8439 254.545 68.7918 243.509 74.332C232.474 79.8721 228.153 92.4041 233.764 103.686C239.375 114.967 251.944 119.02 262.979 113.479C274.015 107.939 278.336 95.4073 272.725 84.1256ZM239.056 101.029C235.044 92.9624 238.038 84.269 246.371 80.0856C254.704 75.9022 263.421 78.7162 267.433 86.7826C271.445 94.849 268.451 103.542 260.118 107.726C251.785 111.909 243.068 109.095 239.056 101.029Z" fill="black"/>
<path d="M244.685 148.032L245.533 154.91L287.233 129.656L240.535 114.393L241.383 121.271L252.012 124.582L254.21 142.402L244.685 148.032ZM258.337 126.461L273.261 131.141L259.895 139.091L258.337 126.461Z" fill="black"/>
<path d="M275.551 179.302C277.428 178.702 279.043 177.742 280.212 176.777C281.534 175.644 283.609 173.354 284.302 168.871C285.505 161.088 280.825 155.895 275.223 155.021C268.998 154.05 265.355 158.647 263.394 161.848L261.098 165.57C259.554 168.135 257.311 171.101 253.078 170.441C248.908 169.79 246.568 166.365 247.165 162.505C247.55 160.014 248.815 158.426 250.492 157.476C251.953 156.684 253.998 156.238 256.052 156.558L255.654 150.056C252.753 149.859 249.86 150.428 247.024 152.281C244.331 154.029 242.083 156.611 241.342 161.405C240.14 169.188 244.69 175.636 252.595 176.869C257.326 177.607 262.01 176.17 266.306 168.997L268.631 165.088C270.875 161.293 273.121 161.197 274.366 161.391C277.043 161.809 279.038 164.16 278.441 168.021C278.162 169.826 277.515 171.128 276.255 172.27C275.301 173.078 274.343 173.503 273.352 173.73L275.551 179.302Z" fill="black"/>
<path d="M265.084 207.362L270.711 209.581L280.062 185.638L274.436 183.42L270.929 192.398L237.463 179.203L235.125 185.189L268.591 198.384L265.084 207.362Z" fill="black"/>
<path d="M254.4 234.436L267.231 215.127L232.333 191.719L219.502 211.028L224.525 214.398L233.8 200.44L244.787 207.81L235.791 221.347L240.814 224.716L249.81 211.179L258.652 217.11L249.377 231.067L254.4 234.436Z" fill="black"/>
<path d="M247.583 241.748L219.266 210.701L214.538 215.054L226.128 227.761L225.294 228.529L204.852 223.972L199.151 229.221L220.891 233.611C217.615 238.339 217.852 244.115 221.928 248.584C223.159 249.934 226.791 253.355 232.255 252.52C235.479 252.035 238.314 250.282 242.068 246.825L247.583 241.748ZM238.865 241.725L237.243 243.218C234.925 245.352 230.418 248.731 226.428 244.355C221.927 239.421 227.084 234.417 228.381 233.222L229.865 231.857L238.865 241.725Z" fill="black"/>
<path d="M197.148 269.649C198.76 270.779 200.499 271.482 201.974 271.827C203.674 272.192 206.75 272.454 210.734 270.284C217.65 266.518 218.95 259.641 216.258 254.65C213.267 249.106 207.409 248.996 203.678 249.378L199.329 249.809C196.356 250.137 192.642 250.151 190.608 246.381C188.604 242.666 189.913 238.725 193.344 236.857C195.557 235.651 197.584 235.695 199.354 236.453C200.867 237.135 202.458 238.493 203.445 240.322L208.375 236.059C206.778 233.629 204.577 231.672 201.388 230.539C198.371 229.456 194.958 229.234 190.698 231.554C183.782 235.321 181.405 242.856 185.204 249.898C187.477 254.112 191.452 256.968 199.753 256.035L204.268 255.513C208.642 254.996 210.076 256.726 210.674 257.835C211.96 260.219 211.297 263.234 207.866 265.103C206.262 265.976 204.835 266.251 203.165 265.941C201.946 265.672 201.029 265.167 200.249 264.516L197.148 269.649Z" fill="black"/>
</svg>
