<svg width="384" height="440" viewBox="0 0 384 440" fill="none" xmlns="http://www.w3.org/2000/svg">
<path d="M184.999 342.236L175.744 366.279L169.191 337.092L151.908 361.462L152.625 335.781L146.199 334.499L145.213 380.363L166.007 351.233L174.004 386.104L191.425 343.517L184.999 342.236Z" fill="#A4AFC1"/>
<path d="M135.118 326.193L117.645 333.559C114.799 334.775 112.449 335.621 109.54 337.597C107.126 339.202 105.354 340.951 103.878 343.591C101.602 347.66 101.773 351.227 102.418 353.687C103.063 356.147 104.834 359.821 109.829 362.635C113.891 364.923 117.734 365.28 121.361 364.214C124.818 363.196 128.059 360.756 130.119 357.072C132.241 353.278 132.266 349.749 131.445 346.828C130.794 344.509 129.125 341.038 124.789 338.596C124.131 338.224 123.496 337.939 122.69 337.702L137.489 331.505L135.118 326.193ZM121.236 342.884C123.267 344.029 124.696 345.991 125.257 347.826C125.861 349.973 125.492 352.441 124.354 354.475C123.093 356.729 121.084 358.128 119.199 358.658C117.346 359.132 114.847 358.954 112.816 357.81C110.95 356.758 109.405 354.875 108.77 352.783C108.136 350.69 108.444 348.332 109.551 346.353C110.627 344.429 112.564 342.772 114.736 342.115C116.994 341.435 119.369 341.833 121.236 342.884Z" fill="#A4AFC1"/>
<path d="M71.743 333.39L103.785 306.204L99.6455 301.289L86.5308 312.416L85.8002 311.549L91.1631 291.218L86.171 285.292L80.9217 306.93C76.3487 303.457 70.5914 303.467 65.9797 307.38C64.5865 308.562 61.0349 312.071 61.6438 317.585C61.9958 320.839 63.6259 323.753 66.9133 327.656L71.743 333.39ZM72.119 324.643L70.6985 322.957C68.6692 320.548 65.4894 315.892 70.0051 312.061C75.0973 307.741 79.8682 313.112 81.0046 314.461L82.3033 316.003L72.119 324.643Z" fill="#A4AFC1"/>
<path d="M36.625 281.528C41.4749 293.158 53.7521 298.045 65.1364 293.263C76.5206 288.48 81.6684 276.273 76.8184 264.643C71.9685 253.014 59.6913 248.127 48.307 252.909C36.9228 257.692 31.775 269.899 36.625 281.528ZM71.3586 266.937C74.8263 275.252 71.2592 283.72 62.6629 287.332C54.0666 290.943 45.5525 287.55 42.0848 279.235C38.6171 270.92 42.1842 262.451 50.7805 258.84C59.3768 255.229 67.8909 258.622 71.3586 266.937Z" fill="#A4AFC1"/>
<path d="M65.316 210.402L64.9166 203.484L21.661 225.941L67.2695 244.24L66.8701 237.322L56.4791 233.319L55.4443 215.394L65.316 210.402ZM50.2888 231.029L35.7008 225.377L49.5554 218.324L50.2888 231.029Z" fill="#A4AFC1"/>
<path d="M36.2695 168.913C34.3569 169.389 32.6836 170.242 31.4544 171.129C30.0612 172.173 27.8419 174.324 26.8598 178.753C25.1547 186.441 29.4876 191.928 35.0212 193.164C41.1697 194.537 45.1028 190.187 47.2672 187.12L49.8002 183.555C51.5071 181.096 53.938 178.282 58.1189 179.216C62.2384 180.136 64.3505 183.706 63.5048 187.52C62.9592 189.98 61.5935 191.482 59.8587 192.321C58.3493 193.017 56.2796 193.329 54.2506 192.876L54.2256 199.39C57.1084 199.776 60.032 199.396 62.9824 197.732C65.7826 196.162 68.1931 193.731 69.2434 188.995C70.9484 181.307 66.8269 174.577 59.0183 172.832C54.3455 171.789 49.5778 172.918 44.8259 179.797L42.2519 183.547C39.7667 187.188 37.5192 187.137 36.2895 186.863C33.6457 186.272 31.8073 183.796 32.653 179.982C33.0485 178.199 33.779 176.942 35.1107 175.884C36.1146 175.14 37.0981 174.778 38.1022 174.615L36.2695 168.913Z" fill="#A4AFC1"/>
<path d="M50.2743 134.894L44.8089 132.304L33.8669 155.563L39.3323 158.152L43.4356 149.43L75.9433 164.835L78.6788 159.02L46.171 143.616L50.2743 134.894Z" fill="#A4AFC1"/>
<path d="M65.3743 103.357L51.2271 121.724L84.4274 147.483L98.5746 129.116L93.7961 125.408L83.5702 138.685L73.1173 130.575L83.0357 117.698L78.2573 113.99L68.3389 126.867L59.9268 120.341L70.1527 107.064L65.3743 103.357Z" fill="#A4AFC1"/>
<path d="M76.6011 91.5176L102.725 124.431L107.744 120.418L97.0517 106.947L97.9374 106.239L118.028 112.196L124.081 107.357L102.683 101.477C106.279 96.9885 106.441 91.2131 102.681 86.4759C101.545 85.0449 98.1558 81.3826 92.6446 81.8366C89.3929 82.0972 86.4424 83.6495 82.4567 86.8361L76.6011 91.5176ZM85.3018 92.1434L87.024 90.7664C89.4844 88.7994 94.2163 85.7422 97.8979 90.3807C102.05 95.6113 96.5574 100.244 95.1797 101.346L93.605 102.605L85.3018 92.1434Z" fill="#A4AFC1"/>
<path d="M133.868 63.1411C132.334 61.9054 130.644 61.088 129.195 60.6453C127.522 60.167 124.469 59.6998 120.348 61.5963C113.195 64.8888 111.44 71.6605 113.797 76.8177C116.415 82.5478 122.255 83.0502 126.005 82.9194L130.374 82.7808C133.364 82.6533 137.073 82.888 138.853 86.7845C140.607 90.6238 139.039 94.4667 135.49 96.0997C133.201 97.1533 131.18 96.974 129.464 96.0993C127.999 95.3174 126.5 93.8571 125.636 91.9661L120.432 95.8871C121.865 98.4176 123.933 100.517 127.041 101.861C129.981 103.143 133.373 103.593 137.78 101.565C144.933 98.2726 147.806 90.9168 144.481 83.6394C142.491 79.2845 138.713 76.169 130.364 76.5437L125.823 76.7613C121.422 76.9836 120.105 75.1624 119.582 74.0164C118.456 71.5524 119.318 68.5894 122.867 66.9563C124.526 66.1924 125.969 66.014 127.616 66.435C128.814 66.7849 129.696 67.35 130.432 68.0515L133.868 63.1411Z" fill="#A4AFC1"/>
<path d="M188.711 87.3154L196.293 62.6912L204.836 91.3535L220.406 65.8487L221.455 91.5169L227.953 92.3508L225.788 46.5316L207.042 77.0278L196.669 42.7952L182.212 86.4816L188.711 87.3154Z" fill="#A4AFC1"/>
<path d="M239.726 99.89L256.672 91.3763C259.432 89.9727 261.72 88.9724 264.492 86.8068C266.794 85.0447 268.446 83.1813 269.744 80.4498C271.744 76.2386 271.336 72.6914 270.529 70.2798C269.722 67.8681 267.71 64.3215 262.538 61.8472C258.333 59.8351 254.474 59.7351 250.925 61.0401C247.544 62.2857 244.471 64.9363 242.66 68.749C240.795 72.6756 241.005 76.1982 242.019 79.0575C242.823 81.3281 244.719 84.6794 249.208 86.8274C249.89 87.1537 250.542 87.3959 251.362 87.5786L237.007 94.748L239.726 99.89ZM252.469 82.3115C250.366 81.3055 248.81 79.4433 248.127 77.6501C247.382 75.5477 247.587 73.0615 248.587 70.9559C249.695 68.6227 251.607 67.0932 253.452 66.4394C255.27 65.8426 257.775 65.854 259.878 66.8601C261.81 67.7845 263.478 69.5601 264.25 71.6056C265.022 73.6511 264.871 76.0235 263.898 78.0722C262.952 80.0639 261.13 81.8457 259.006 82.6455C256.799 83.4751 254.401 83.236 252.469 82.3115Z" fill="#A4AFC1"/>
<path d="M302.599 88.5135L272.404 117.737L276.856 122.371L289.215 110.41L290.001 111.228L285.979 131.866L291.347 137.453L295.171 115.517C299.961 118.684 305.705 118.297 310.051 114.091C311.364 112.821 314.678 109.087 313.71 103.624C313.146 100.4 311.329 97.5993 307.793 93.9196L302.599 88.5135ZM302.796 97.2658L304.324 98.8558C306.506 101.127 309.983 105.565 305.728 109.683C300.929 114.327 295.818 109.28 294.595 108.008L293.199 106.554L302.796 97.2658Z" fill="#A4AFC1"/>
<path d="M340.694 137.145C335.079 125.865 322.504 121.811 311.466 127.347C300.428 132.882 296.109 145.409 301.724 156.688C307.34 167.968 319.915 172.022 330.953 166.486C341.99 160.951 346.31 148.424 340.694 137.145ZM307.018 154.034C303.003 145.969 305.995 137.279 314.33 133.099C322.665 128.919 331.385 131.735 335.401 139.799C339.416 147.864 336.423 156.554 328.089 160.734C319.754 164.914 311.033 162.098 307.018 154.034Z" fill="#A4AFC1"/>
<path d="M317.121 210.24L317.97 217.118L359.668 191.87L312.966 176.602L313.816 183.48L324.445 186.792L326.645 204.611L317.121 210.24ZM330.771 188.671L345.695 193.354L332.331 201.301L330.771 188.671Z" fill="#A4AFC1"/>
<path d="M348.922 250.156C350.8 249.556 352.415 248.596 353.584 247.631C354.907 246.498 356.982 244.207 357.676 239.724C358.88 231.942 354.2 226.75 348.598 225.877C342.373 224.907 338.729 229.504 336.768 232.705L334.471 236.428C332.927 238.992 330.683 241.958 326.45 241.299C322.279 240.649 319.94 237.224 320.538 233.364C320.923 230.874 322.188 229.285 323.865 228.335C325.327 227.543 327.372 227.096 329.426 227.416L329.029 220.915C326.127 220.718 323.234 221.287 320.398 223.141C317.705 224.889 315.457 227.471 314.715 232.265C313.511 240.048 318.06 246.495 325.966 247.727C330.697 248.464 335.381 247.026 339.678 239.853L342.004 235.944C344.249 232.149 346.495 232.053 347.74 232.247C350.417 232.664 352.412 235.015 351.815 238.875C351.535 240.68 350.888 241.982 349.627 243.125C348.674 243.933 347.715 244.357 346.724 244.585L348.922 250.156Z" fill="#A4AFC1"/>
<path d="M337.393 284.744L343.02 286.96L352.381 263.021L346.753 260.805L343.243 269.782L309.773 256.599L307.433 262.584L340.903 275.767L337.393 284.744Z" fill="#A4AFC1"/>
<path d="M324.827 316.839L337.668 297.535L302.759 274.145L289.918 293.448L294.943 296.815L304.224 282.862L315.215 290.226L306.213 303.759L311.237 307.126L320.239 293.593L329.084 299.519L319.803 313.472L324.827 316.839Z" fill="#A4AFC1"/>
<path d="M314.457 329.584L286.123 298.553L281.393 302.903L292.99 315.604L292.156 316.371L271.702 311.816L265.998 317.062L287.75 321.45C284.473 326.176 284.71 331.949 288.788 336.416C290.02 337.765 293.654 341.184 299.121 340.351C302.347 339.866 305.183 338.114 308.939 334.659L314.457 329.584ZM305.734 329.561L304.111 331.054C301.793 333.186 297.283 336.563 293.29 332.19C288.787 327.258 293.946 322.257 295.245 321.063L296.728 319.698L305.734 329.561Z" fill="#A4AFC1"/>
<path d="M258.911 362.164C260.524 363.295 262.264 363.998 263.739 364.343C265.44 364.708 268.518 364.971 272.502 362.803C279.42 359.04 280.719 352.165 278.025 347.176C275.031 341.633 269.171 341.522 265.439 341.903L261.089 342.333C258.115 342.66 254.399 342.673 252.363 338.904C250.357 335.19 251.667 331.25 255.098 329.384C257.311 328.179 259.34 328.223 261.11 328.982C262.624 329.664 264.216 331.021 265.204 332.85L270.135 328.59C268.536 326.161 266.334 324.203 263.144 323.07C260.125 321.987 256.711 321.764 252.45 324.083C245.532 327.846 243.156 335.378 246.958 342.418C249.233 346.631 253.21 349.487 261.514 348.556L266.03 348.036C270.406 347.52 271.841 349.249 272.44 350.358C273.727 352.742 273.064 355.756 269.633 357.623C268.028 358.496 266.601 358.77 264.93 358.46C263.71 358.191 262.793 357.686 262.012 357.035L258.911 362.164Z" fill="#A4AFC1"/>
<path d="M185.62 357.99L176.365 382.033L169.812 352.846L152.529 377.216L153.245 351.535L146.82 350.253L145.833 396.117L166.628 366.987L174.625 401.857L192.046 359.271L185.62 357.99Z" fill="black"/>
<path d="M129.558 340.502L112.084 347.868C109.238 349.085 106.889 349.93 103.979 351.906C101.565 353.511 99.7931 355.261 98.317 357.9C96.0414 361.969 96.2121 365.536 96.8572 367.996C97.5023 370.457 99.2737 374.13 104.269 376.944C108.33 379.232 112.173 379.589 115.801 378.523C119.257 377.506 122.499 375.066 124.559 371.382C126.681 367.588 126.705 364.058 125.885 361.138C125.233 358.818 123.565 355.348 119.229 352.905C118.57 352.534 117.935 352.249 117.13 352.012L131.928 345.814L129.558 340.502ZM115.675 357.194C117.706 358.338 119.135 360.3 119.697 362.135C120.3 364.283 119.931 366.75 118.793 368.784C117.532 371.039 115.523 372.438 113.639 372.967C111.785 373.441 109.287 373.263 107.256 372.119C105.39 371.067 103.844 369.185 103.21 367.092C102.576 364.999 102.883 362.642 103.99 360.662C105.067 358.738 107.004 357.081 109.176 356.425C111.433 355.744 113.809 356.142 115.675 357.194Z" fill="black"/>
<path d="M61.4257 344.642L93.4679 317.457L89.3281 312.542L76.2134 323.669L75.4829 322.801L80.8457 302.471L75.8537 296.544L70.6043 318.183C66.0314 314.71 60.2741 314.72 55.6623 318.633C54.2692 319.815 50.7176 323.324 51.3264 328.838C51.6784 332.092 53.3085 335.005 56.5959 338.908L61.4257 344.642ZM61.8016 335.896L60.3811 334.21C58.3518 331.8 55.172 327.145 59.6877 323.314C64.7799 318.994 69.5508 324.364 70.6872 325.714L71.9859 327.255L61.8016 335.896Z" fill="black"/>
<path d="M23.6037 289.771C28.4536 301.4 40.7308 306.288 52.115 301.505C63.4993 296.723 68.647 284.515 63.7971 272.886C58.9471 261.257 46.67 256.369 35.2857 261.152C23.9014 265.934 18.7537 278.142 23.6037 289.771ZM58.3373 275.18C61.805 283.495 58.2378 291.963 49.6415 295.574C41.0453 299.186 32.5312 295.792 29.0635 287.477C25.5957 279.163 29.1629 270.694 37.7592 267.083C46.3555 263.472 54.8696 266.865 58.3373 275.18Z" fill="black"/>
<path d="M50.1089 213.142L49.7095 206.223L6.4539 228.68L52.0624 246.979L51.663 240.061L41.272 236.058L40.2372 218.133L50.1089 213.142ZM35.0817 233.768L20.4937 228.116L34.3482 221.063L35.0817 233.768Z" fill="black"/>
<path d="M20.8615 166.632C18.949 167.108 17.2757 167.961 16.0464 168.848C14.6533 169.893 12.4339 172.044 11.4518 176.472C9.74682 184.16 14.0797 189.647 19.6133 190.883C25.7617 192.256 29.6949 187.906 31.8592 184.839L34.3923 181.274C36.0992 178.815 38.53 176.001 42.711 176.935C46.8305 177.855 48.9425 181.426 48.0968 185.239C47.5512 187.699 46.1856 189.202 44.4508 190.041C42.9413 190.736 40.8716 191.049 38.8426 190.595L38.8177 197.11C41.7005 197.495 44.6241 197.116 47.5745 195.451C50.3747 193.882 52.7852 191.451 53.8355 186.715C55.5405 179.026 51.419 172.296 43.6104 170.552C38.9376 169.508 34.1699 170.638 29.4179 177.516L26.844 181.266C24.3587 184.907 22.1113 184.857 20.8816 184.582C18.2378 183.991 16.3993 181.515 17.245 177.702C17.6406 175.918 18.3711 174.661 19.7027 173.603C20.7067 172.859 21.6902 172.497 22.6943 172.334L20.8615 166.632Z" fill="black"/>
<path d="M35.7492 128.823L30.2838 126.233L19.3419 149.492L24.8073 152.082L28.9105 143.36L61.4182 158.765L64.1537 152.95L31.646 137.545L35.7492 128.823Z" fill="black"/>
<path d="M52.1779 94.3866L38.0308 112.754L71.2311 138.513L85.3782 120.145L80.5997 116.438L70.3738 129.714L59.921 121.604L69.8393 108.727L65.0609 105.02L55.1425 117.897L46.7305 111.37L56.9564 98.094L52.1779 94.3866Z" fill="black"/>
<path d="M65.6948 79.5437L91.8187 112.457L96.8378 108.445L86.1454 94.9732L87.0311 94.265L107.122 100.222L113.174 95.3834L91.777 89.5028C95.3731 85.0145 95.5347 79.2392 91.7747 74.502C90.6389 73.071 87.2495 69.4087 81.7383 69.8627C78.4866 70.1233 75.5362 71.6755 71.5504 74.8621L65.6948 79.5437ZM74.3955 80.1694L76.1178 78.7925C78.5781 76.8255 83.31 73.7683 86.9916 78.4068C91.1432 83.6374 85.6512 88.2703 84.2734 89.3718L82.6988 90.6307L74.3955 80.1694Z" fill="black"/>
<path d="M126.076 48.6795C124.541 47.4438 122.852 46.6263 121.403 46.1836C119.73 45.7053 116.676 45.2381 112.556 47.1346C105.402 50.4271 103.648 57.1989 106.004 62.356C108.622 68.0862 114.462 68.5885 118.212 68.4578L122.582 68.3191C125.571 68.1916 129.28 68.4264 131.061 72.3229C132.815 76.1621 131.246 80.005 127.698 81.6381C125.409 82.6917 123.387 82.5124 121.672 81.6376C120.206 80.8557 118.708 79.3954 117.844 77.5045L112.639 81.4255C114.073 83.956 116.14 86.0558 119.248 87.3996C122.189 88.6815 125.581 89.1317 129.987 87.1035C137.141 83.811 140.014 76.4551 136.689 69.1778C134.699 64.8229 130.92 61.7073 122.572 62.082L118.03 62.2997C113.63 62.5219 112.313 60.7008 111.789 59.5547C110.663 57.0908 111.526 54.1277 115.074 52.4946C116.734 51.7308 118.176 51.5524 119.823 51.9734C121.022 52.3232 121.904 52.8884 122.64 53.5899L126.076 48.6795Z" fill="black"/>
<path d="M188.222 70.3121L195.805 45.6879L204.347 74.3502L219.917 48.8453L220.966 74.5135L227.465 75.3474L225.299 29.5282L206.553 60.0244L196.18 25.7918L181.724 69.4782L188.222 70.3121Z" fill="black"/>
<path d="M245.527 83.9018L262.474 75.3882C265.233 73.9845 267.522 72.9842 270.294 70.8186C272.595 69.0565 274.248 67.1931 275.545 64.4616C277.545 60.2504 277.138 56.7032 276.33 54.2916C275.523 51.88 273.511 48.3333 268.34 45.859C264.134 43.8469 260.276 43.7469 256.727 45.0519C253.345 46.2975 250.273 48.9481 248.462 52.7608C246.597 56.6874 246.807 60.21 247.82 63.0693C248.625 65.3399 250.52 68.6912 255.01 70.8392C255.692 71.1655 256.344 71.4077 257.164 71.5904L242.809 78.7598L245.527 83.9018ZM258.271 66.3233C256.168 65.3173 254.611 63.4551 253.929 61.6619C253.184 59.5595 253.388 57.0733 254.388 54.9677C255.497 52.6345 257.409 51.105 259.254 50.4512C261.071 49.8544 263.577 49.8658 265.68 50.8719C267.612 51.7963 269.279 53.5719 270.051 55.6174C270.823 57.6629 270.673 60.0353 269.7 62.084C268.754 64.0757 266.931 65.8575 264.808 66.6573C262.6 67.4869 260.203 67.2478 258.271 66.3233Z" fill="black"/>
<path d="M313.362 75.258L283.167 104.482L287.619 109.115L299.978 97.1543L300.764 97.972L296.742 118.61L302.111 124.198L305.934 102.262C310.724 105.429 316.468 105.042 320.814 100.836C322.127 99.5653 325.441 95.8314 324.473 90.3683C323.909 87.1442 322.092 84.3438 318.557 80.6641L313.362 75.258ZM313.559 84.0102L315.087 85.6002C317.269 87.8717 320.747 92.3092 316.491 96.4276C311.693 101.072 306.581 96.0244 305.359 94.7524L303.962 93.2987L313.559 84.0102Z" fill="black"/>
<path d="M354.314 126.631C348.698 115.352 336.123 111.298 325.086 116.833C314.048 122.369 309.728 134.895 315.344 146.175C320.96 157.454 333.535 161.508 344.572 155.972C355.61 150.437 359.93 137.91 354.314 126.631ZM320.638 143.52C316.622 135.455 319.615 126.766 327.95 122.586C336.284 118.406 345.005 121.221 349.02 129.286C353.036 137.35 350.043 146.04 341.708 150.22C333.374 154.4 324.653 151.585 320.638 143.52Z" fill="black"/>
<path d="M333.328 205.097L334.177 211.974L375.875 186.726L329.174 171.458L330.023 178.336L340.652 181.648L342.853 199.468L333.328 205.097ZM346.978 183.528L361.903 188.21L348.538 196.158L346.978 183.528Z" fill="black"/>
<path d="M365.67 250.055C367.548 249.455 369.163 248.495 370.332 247.529C371.655 246.396 373.731 244.106 374.424 239.623C375.628 231.84 370.949 226.648 365.346 225.775C359.121 224.805 355.478 229.402 353.516 232.603L351.219 236.326C349.675 238.891 347.431 241.857 343.198 241.197C339.028 240.547 336.689 237.122 337.286 233.262C337.671 230.772 338.937 229.184 340.614 228.234C342.075 227.441 344.12 226.995 346.175 227.315L345.778 220.813C342.876 220.616 339.983 221.186 337.146 223.039C334.453 224.787 332.205 227.37 331.463 232.164C330.26 239.946 334.808 246.393 342.714 247.625C347.445 248.362 352.13 246.925 356.427 239.752L358.753 235.842C360.997 232.047 363.243 231.951 364.488 232.145C367.165 232.562 369.16 234.913 368.563 238.773C368.284 240.579 367.636 241.881 366.376 243.023C365.422 243.831 364.464 244.256 363.472 244.484L365.67 250.055Z" fill="black"/>
<path d="M353.524 288.454L359.151 290.67L368.512 266.731L362.884 264.514L359.374 273.492L325.904 260.309L323.564 266.294L357.034 279.476L353.524 288.454Z" fill="black"/>
<path d="M339.861 323.488L352.702 304.185L317.793 280.794L304.952 300.098L309.976 303.464L319.258 289.511L330.249 296.876L321.246 310.409L326.271 313.776L335.273 300.242L344.118 306.169L334.837 320.122L339.861 323.488Z" fill="black"/>
<path d="M327.415 339.406L299.081 308.374L294.352 312.724L305.948 325.425L305.114 326.193L284.66 321.638L278.957 326.883L300.708 331.272C297.431 335.998 297.669 341.771 301.747 346.237C302.979 347.586 306.613 351.006 312.079 350.172C315.305 349.688 318.141 347.935 321.897 344.481L327.415 339.406ZM318.692 339.383L317.069 340.875C314.751 343.008 310.242 346.385 306.248 342.011C301.746 337.08 306.904 332.078 308.203 330.884L309.687 329.519L318.692 339.383Z" fill="black"/>
<path d="M268.901 374.721C270.514 375.852 272.254 376.555 273.729 376.9C275.43 377.265 278.507 377.528 282.492 375.36C289.409 371.597 290.709 364.722 288.014 359.733C285.021 354.19 279.161 354.079 275.429 354.459L271.078 354.89C268.105 355.216 264.389 355.23 262.353 351.46C260.347 347.746 261.656 343.807 265.087 341.94C267.301 340.736 269.33 340.78 271.1 341.538C272.614 342.221 274.206 343.578 275.194 345.407L280.125 341.147C278.526 338.718 276.323 336.76 273.134 335.627C270.114 334.544 266.701 334.321 262.439 336.639C255.522 340.403 253.145 347.935 256.948 354.975C259.223 359.188 263.2 362.044 271.504 361.113L276.02 360.592C280.396 360.077 281.831 361.806 282.429 362.915C283.717 365.298 283.054 368.313 279.622 370.179C278.018 371.052 276.59 371.327 274.919 371.017C273.7 370.748 272.783 370.242 272.002 369.592L268.901 374.721Z" fill="black"/>
</svg>
