<svg width="384" height="440" viewBox="0 0 384 440" fill="none" xmlns="http://www.w3.org/2000/svg">
<path d="M114.881 335.428L94.8683 351.637L103.773 323.054L76.6517 335.527L90.0951 313.622L85.1758 309.295L61.4216 348.56L93.957 333.718L83.4637 367.952L119.8 339.755L114.881 335.428Z" fill="#EBDCCA"/>
<path d="M75.0867 292.168L56.2722 289.811C53.1992 289.441 50.7417 288.999 47.2337 289.256C44.3412 289.439 41.9317 290.068 39.3339 291.616C35.3288 294.002 33.6931 297.176 33.0216 299.63C32.3501 302.083 32.0474 306.15 34.9661 311.085C37.3394 315.097 40.4886 317.328 44.1629 318.219C47.6648 319.066 51.6919 318.573 55.3181 316.412C59.0526 314.188 60.8386 311.143 61.5883 308.203C62.1836 305.869 62.4743 302.029 59.9405 297.745C59.5556 297.094 59.1487 296.53 58.5694 295.922L74.4834 297.954L75.0867 292.168ZM54.7187 299.683C55.9054 301.689 56.162 304.103 55.731 305.973C55.1798 308.135 53.6263 310.087 51.6237 311.28C49.4047 312.602 46.9652 312.809 45.0689 312.325C43.2267 311.81 41.1521 310.406 39.9654 308.399C38.8749 306.556 38.478 304.152 38.9751 302.023C39.4722 299.893 40.9175 298.005 42.8659 296.845C44.7602 295.716 47.2658 295.25 49.4748 295.767C51.77 296.306 53.6282 297.839 54.7187 299.683Z" fill="#EBDCCA"/>
<path d="M13.9372 261.612L55.2881 254.137L54.1531 247.812L37.2284 250.872L37.0281 249.755L51.8274 234.852L50.4587 227.225L35.1046 243.317C32.8743 238.022 27.8781 235.148 21.9266 236.224C20.1287 236.549 15.2979 237.806 13.0724 242.882C11.753 245.873 11.7117 249.21 12.613 254.233L13.9372 261.612ZM18.6298 254.234L18.2403 252.063C17.6839 248.963 17.2515 243.343 23.0791 242.29C29.6506 241.102 31.1051 248.137 31.4167 249.873L31.7728 251.858L18.6298 254.234Z" fill="#EBDCCA"/>
<path d="M8.48945 195.126C6.89689 207.625 15.0995 218.015 27.347 219.586C39.5946 221.158 50.1382 213.175 51.7308 200.676C53.3233 188.177 45.1207 177.787 32.8732 176.215C20.6257 174.643 10.082 182.627 8.48945 195.126ZM45.8569 199.922C44.7183 208.859 37.4074 214.399 28.1592 213.212C18.9111 212.025 13.2246 204.817 14.3633 195.88C15.5019 186.943 22.8128 181.403 32.061 182.59C41.3091 183.777 46.9956 190.985 45.8569 199.922Z" fill="#EBDCCA"/>
<path d="M69.5724 142.005L72.6754 135.809L24.0495 133.578L54.3958 172.312L57.4988 166.115L50.502 157.435L58.5416 141.38L69.5724 142.005ZM46.2869 152.345L36.4802 140.131L51.9852 140.966L46.2869 152.345Z" fill="#EBDCCA"/>
<path d="M67.4385 87.0278C65.5459 86.4834 63.6724 86.385 62.1657 86.5388C60.4388 86.7468 57.4445 87.5004 54.3833 90.8476C49.0686 96.6588 50.0773 103.584 54.2474 107.426C58.881 111.694 64.4563 109.892 67.8605 108.317L71.8326 106.494C74.5374 105.217 78.0457 103.995 81.1965 106.897C84.301 109.757 84.3452 113.909 81.7092 116.792C80.0085 118.651 78.0766 119.27 76.1568 119.129C74.5035 118.976 72.5568 118.211 71.0278 116.802L67.7529 122.437C70.0544 124.215 72.7734 125.349 76.1575 125.383C79.3638 125.424 82.6633 124.523 85.9372 120.944C91.2518 115.132 91.0472 107.235 85.1626 101.814C81.6411 98.5697 76.952 97.1624 69.4056 100.746L65.3059 102.709C61.3376 104.621 59.4182 103.452 58.4915 102.598C56.4991 100.763 56.1453 97.6959 58.7813 94.8135C60.0143 93.4653 61.274 92.7414 62.9546 92.4907C64.1947 92.3483 65.2261 92.5275 66.1762 92.8888L67.4385 87.0278Z" fill="#EBDCCA"/>
<path d="M99.1807 61.7436L95.744 56.767L74.643 71.445L78.0797 76.4217L85.9926 70.9174L106.434 100.518L111.709 96.8487L91.2679 67.2479L99.1807 61.7436Z" fill="#EBDCCA"/>
<path d="M130.588 40.1779L109.148 49.0005L125.04 87.9006L146.479 79.0779L144.192 73.4791L128.695 79.8564L123.692 67.609L138.723 61.4235L136.435 55.8247L121.404 62.0102L117.378 52.1539L132.875 45.7767L130.588 40.1779Z" fill="#EBDCCA"/>
<path d="M149.663 34.1334L155.881 75.6917L162.235 74.7339L159.69 57.7243L160.811 57.5553L175.255 72.7715L182.918 71.6166L167.303 55.8123C172.661 53.7305 175.684 48.8151 174.789 42.8337C174.518 41.0268 173.408 36.1609 168.404 33.7934C165.455 32.3902 162.122 32.2554 157.076 33.016L149.663 34.1334ZM156.893 39.0324L159.074 38.7038C162.188 38.2343 167.817 37.9594 168.693 43.8162C169.681 50.4206 162.607 51.678 160.863 51.9409L158.87 52.2414L156.893 39.0324Z" fill="#EBDCCA"/>
<path d="M217.348 37.724C216.634 35.8849 215.578 34.3299 214.543 33.2199C213.331 31.9667 210.918 30.0307 206.402 29.6051C198.562 28.8662 193.666 33.8469 193.138 39.4922C192.551 45.7648 197.362 49.129 200.676 50.8968L204.532 52.9688C207.186 54.3579 210.284 56.4216 209.885 60.687C209.491 64.8897 206.217 67.4286 202.328 67.0621C199.819 66.8256 198.157 65.6565 197.106 64.0388C196.225 62.6269 195.655 60.6115 195.848 58.5415L189.384 59.3245C189.365 62.2335 190.111 65.088 192.134 67.8099C194.043 70.3945 196.758 72.4854 201.588 72.9406C209.428 73.6795 215.584 68.7544 216.329 60.7882C216.775 56.021 215.053 51.4292 207.632 47.5658L203.588 45.4761C199.664 43.461 199.43 41.2242 199.548 39.9697C199.8 37.2725 202.024 35.1408 205.913 35.5073C207.732 35.6787 209.071 36.2478 210.288 37.4383C211.153 38.3424 211.635 39.2738 211.923 40.2501L217.348 37.724Z" fill="#EBDCCA"/>
<path d="M260.308 87.7284L279.157 70.179L272.243 99.3065L298.441 84.9947L286.538 107.773L291.744 111.751L312.738 70.9441L281.301 87.992L289.411 53.1184L255.102 83.7501L260.308 87.7284Z" fill="#EBDCCA"/>
<path d="M303.111 128.246L322.039 129.345C325.13 129.509 327.611 129.786 331.094 129.297C333.967 128.921 336.329 128.133 338.818 126.415C342.655 123.767 344.076 120.491 344.583 117.998C345.089 115.505 345.121 111.426 341.88 106.697C339.246 102.851 335.955 100.835 332.23 100.191C328.68 99.5789 324.695 100.339 321.221 102.736C317.643 105.205 316.064 108.362 315.511 111.346C315.073 113.715 315.038 117.566 317.851 121.672C318.279 122.296 318.722 122.831 319.341 123.4L303.328 122.432L303.111 128.246ZM322.932 119.39C321.615 117.467 321.198 115.076 321.504 113.181C321.91 110.987 323.33 108.935 325.248 107.611C327.374 106.144 329.794 105.775 331.718 106.132C333.591 106.524 335.754 107.786 337.071 109.709C338.282 111.476 338.838 113.848 338.484 116.006C338.129 118.165 336.813 120.145 334.946 121.433C333.132 122.685 330.663 123.317 328.424 122.948C326.099 122.563 324.143 121.157 322.932 119.39Z" fill="#EBDCCA"/>
<path d="M366.238 154.749L325.467 164.92L327.012 171.158L343.699 166.995L343.972 168.095L330.177 183.939L332.04 191.46L346.311 174.395C348.881 179.532 354.054 182.073 359.922 180.609C361.694 180.166 366.433 178.595 368.322 173.383C369.444 170.312 369.267 166.979 368.04 162.026L366.238 154.749ZM362.037 162.42L362.567 164.56C363.324 167.618 364.122 173.198 358.376 174.631C351.897 176.247 349.987 169.322 349.563 167.61L349.078 165.653L362.037 162.42Z" fill="#EBDCCA"/>
<path d="M376.136 219.767C376.891 207.19 368.014 197.375 355.688 196.63C343.363 195.884 333.375 204.558 332.62 217.135C331.864 229.712 340.742 239.527 353.067 240.273C365.393 241.018 375.381 232.345 376.136 219.767ZM338.531 217.493C339.071 208.5 345.996 202.481 355.303 203.044C364.61 203.607 370.765 210.417 370.225 219.41C369.685 228.403 362.76 234.421 353.453 233.858C344.146 233.295 337.991 226.485 338.531 217.493Z" fill="#EBDCCA"/>
<path d="M318.916 277.238L316.224 283.623L364.897 282.664L332.083 246.006L329.391 252.391L336.94 260.594L329.965 277.139L318.916 277.238ZM341.479 265.396L352.064 276.941L336.535 277.123L341.479 265.396Z" fill="#EBDCCA"/>
<path d="M324.515 332.432C326.439 332.853 328.315 332.829 329.809 332.578C331.519 332.258 334.458 331.312 337.295 327.773C342.222 321.629 340.765 314.784 336.354 311.222C331.453 307.263 326.007 309.424 322.712 311.216L318.866 313.293C316.25 314.743 312.828 316.191 309.496 313.499C306.212 310.847 305.898 306.707 308.342 303.659C309.918 301.693 311.806 300.95 313.731 300.966C315.39 301.011 317.383 301.648 319 302.955L321.902 297.12C319.49 295.495 316.703 294.54 313.324 294.726C310.122 294.893 306.887 296.006 303.853 299.791C298.926 305.935 299.644 313.802 305.868 318.829C309.593 321.838 314.364 322.937 321.661 318.871L325.625 316.647C329.461 314.481 331.452 315.522 332.433 316.314C334.54 318.016 335.092 321.054 332.649 324.101C331.506 325.527 330.296 326.331 328.635 326.69C327.407 326.913 326.366 326.801 325.394 326.502L324.515 332.432Z" fill="#EBDCCA"/>
<path d="M294.855 359.608L298.618 364.343L318.685 348.281L314.923 343.546L307.397 349.569L285.017 321.406L280.001 325.421L302.381 353.585L294.855 359.608Z" fill="#EBDCCA"/>
<path d="M265.544 383.087L286.319 372.794L267.773 335.087L246.999 345.38L249.668 350.807L264.684 343.367L270.523 355.239L255.958 362.455L258.628 367.882L273.192 360.666L277.891 370.22L262.875 377.659L265.544 383.087Z" fill="#EBDCCA"/>
<path d="M246.86 390.6L237.796 349.568L231.523 350.964L235.233 367.758L234.126 368.004L218.67 353.824L211.107 355.507L227.771 370.193C222.57 372.641 219.893 377.755 221.197 383.661C221.591 385.445 223.034 390.222 228.189 392.238C231.228 393.433 234.561 393.337 239.542 392.228L246.86 390.6ZM239.31 386.213L237.158 386.692C234.083 387.376 228.488 388.041 227.21 382.258C225.77 375.737 232.739 373.993 234.461 373.609L236.429 373.172L239.31 386.213Z" fill="#EBDCCA"/>
<path d="M178.566 391.805C179.4 393.592 180.558 395.073 181.664 396.111C182.957 397.28 185.493 399.05 190.027 399.173C197.9 399.385 202.453 394.088 202.605 388.42C202.774 382.122 197.75 379.088 194.325 377.546L190.34 375.737C187.6 374.528 184.372 372.676 184.487 368.394C184.6 364.174 187.699 361.422 191.604 361.528C194.123 361.596 195.859 362.651 197.015 364.194C197.987 365.544 198.691 367.517 198.635 369.595L205.033 368.381C204.858 365.478 203.925 362.679 201.725 360.099C199.648 357.648 196.8 355.744 191.951 355.613C184.079 355.4 178.264 360.726 178.05 368.724C177.922 373.511 179.945 377.977 187.606 381.335L191.78 383.149C195.83 384.897 196.212 387.113 196.178 388.373C196.105 391.081 194.028 393.357 190.123 393.251C188.297 393.202 186.923 392.724 185.629 391.617C184.707 390.773 184.163 389.876 183.811 388.921L178.566 391.805Z" fill="#EBDCCA"/>
</svg>
