<svg width="639" height="622" viewBox="0 0 639 622" fill="none" xmlns="http://www.w3.org/2000/svg">
<path d="M188.885 530.109L162.176 551.642L174.069 513.682L137.876 530.256L155.823 501.163L149.261 495.418L117.55 547.569L160.968 527.847L146.953 573.311L195.447 535.854L188.885 530.109Z" fill="#EBDCCA"/>
<path d="M120.066 458.132L94.9708 454.976C90.8721 454.481 87.594 453.89 82.9161 454.226C79.0587 454.466 75.8462 455.299 72.3836 457.352C67.0454 460.517 64.8681 464.732 63.9757 467.991C63.0833 471.25 62.685 476.653 66.5837 483.212C69.7542 488.546 73.9568 491.514 78.8582 492.702C83.5296 493.832 88.8996 493.183 93.7329 490.317C98.7104 487.366 101.088 483.324 102.084 479.419C102.875 476.318 103.258 471.217 99.8733 465.522C99.3591 464.657 98.8157 463.907 98.0423 463.098L119.268 465.818L120.066 458.132ZM92.9118 468.09C94.497 470.757 94.8423 473.964 94.27 476.448C93.5376 479.319 91.4684 481.911 88.7993 483.494C85.8416 485.247 82.5885 485.519 80.0589 484.874C77.6014 484.186 74.8327 482.318 73.2475 479.651C71.7908 477.2 71.2584 474.006 71.9186 471.178C72.5788 468.349 74.5038 465.843 77.1008 464.303C79.6256 462.806 82.9666 462.19 85.9133 462.88C88.9749 463.6 91.4551 465.639 92.9118 468.09Z" fill="#EBDCCA"/>
<path d="M29.7209 400.6L84.7774 390.696L83.2596 382.279L60.7252 386.332L60.4574 384.847L80.1496 365.032L78.3193 354.882L57.8896 376.278C54.9144 369.231 48.2584 365.402 40.3342 366.827C37.9405 367.258 31.5088 368.926 28.5505 375.677C26.7966 379.656 26.7449 384.096 27.9502 390.78L29.7209 400.6ZM35.9622 390.787L35.4414 387.899C34.6974 383.773 34.116 376.295 41.875 374.899C50.6246 373.325 52.5686 382.688 52.9853 384.998L53.4614 387.639L35.9622 390.787Z" fill="#EBDCCA"/>
<path d="M19.6317 298.868C17.5019 315.503 28.4154 329.323 44.7212 331.405C61.0269 333.488 75.0712 322.856 77.201 306.221C79.3308 289.587 68.4173 275.767 52.1115 273.684C35.8058 271.602 21.7615 282.234 19.6317 298.868ZM69.3809 305.223C67.8581 317.116 58.1199 324.495 45.8074 322.922C33.4949 321.349 25.929 311.761 27.4518 299.867C28.9746 287.974 38.7128 280.595 51.0253 282.168C63.3379 283.741 70.9037 293.329 69.3809 305.223Z" fill="#EBDCCA"/>
<path d="M104.018 208.617L108.164 200.378L43.3373 197.485L83.7391 248.916L87.8854 240.677L78.5697 229.151L89.3122 207.803L104.018 208.617ZM72.9575 222.393L59.9008 206.175L80.5714 207.262L72.9575 222.393Z" fill="#EBDCCA"/>
<path d="M109.131 120.801C106.606 120.079 104.106 119.949 102.095 120.153C99.7911 120.43 95.7956 121.431 91.71 125.877C84.617 133.595 85.961 142.791 91.5244 147.891C97.7059 153.558 105.146 151.163 109.688 149.071L114.989 146.649C118.598 144.953 123.28 143.329 127.483 147.182C131.625 150.979 131.683 156.493 128.165 160.321C125.895 162.791 123.317 163.613 120.755 163.426C118.549 163.224 115.952 162.208 113.912 160.338L109.541 167.821C112.612 170.181 116.239 171.686 120.755 171.73C125.033 171.784 129.436 170.588 133.805 165.833C140.898 158.115 140.627 147.628 132.777 140.431C128.079 136.124 121.822 134.256 111.752 139.018L106.281 141.624C100.986 144.164 98.4249 142.613 97.1886 141.48C94.5306 139.043 94.0592 134.97 97.5774 131.142C99.2229 129.352 100.904 128.39 103.146 128.057C104.801 127.867 106.177 128.105 107.445 128.584L109.131 120.801Z" fill="#EBDCCA"/>
<path d="M160.457 77.7743L155.867 71.1605L127.734 90.6353L132.324 97.249L142.874 89.946L170.172 129.284L177.205 124.415L149.907 85.0773L160.457 77.7743Z" fill="#EBDCCA"/>
<path d="M211.119 42.9939L182.558 54.6899L203.798 106.43L232.359 94.7337L229.302 87.2869L208.658 95.7411L201.97 79.4512L221.994 71.2513L218.937 63.8045L198.913 72.0044L193.531 58.8949L214.176 50.4407L211.119 42.9939Z" fill="#EBDCCA"/>
<path d="M248.364 30.1279L256.68 85.4346L265.14 84.1656L261.736 61.5289L263.229 61.3049L282.474 81.5655L292.676 80.0353L271.871 58.9912C279.003 56.2256 283.024 49.6873 281.827 41.7271C281.466 39.3225 279.983 32.8466 273.317 29.6918C269.389 27.8221 264.952 27.6398 258.234 28.6475L248.364 30.1279ZM257.996 36.6533L260.899 36.2179C265.046 35.5959 272.54 35.2349 273.712 43.0293C275.033 51.8186 265.615 53.4856 263.293 53.8339L260.639 54.232L257.996 36.6533Z" fill="#EBDCCA"/>
<path d="M351.867 32.9521C350.918 30.5049 349.512 28.436 348.135 26.9594C346.522 25.2922 343.311 22.7171 337.298 22.1532C326.861 21.1743 320.341 27.8055 319.634 35.3189C318.849 43.6671 325.252 48.1417 329.664 50.4925L334.796 53.2478C338.329 55.095 342.451 57.8398 341.918 63.5166C341.392 69.1099 337.03 72.4907 331.853 72.0051C328.513 71.6918 326.301 70.1368 324.903 67.9845C323.731 66.106 322.973 63.4241 323.232 60.6692L314.625 61.7148C314.598 65.5863 315.589 69.3848 318.281 73.0061C320.822 76.4447 324.435 79.2259 330.865 79.8289C341.303 80.8079 349.501 74.2498 350.498 63.6475C351.094 57.3029 348.805 51.1928 338.926 46.0555L333.543 43.2767C328.32 40.5971 328.01 37.6204 328.167 35.9508C328.505 32.3611 331.467 29.5228 336.644 30.0084C339.066 30.2355 340.848 30.9922 342.468 32.5758C343.618 33.7786 344.26 35.0178 344.643 36.317L351.867 32.9521Z" fill="#EBDCCA"/>
<path d="M434.885 104.283L460.046 80.9611L450.798 119.651L485.761 100.622L469.863 130.883L476.805 136.163L504.846 81.9505L462.891 104.617L473.739 58.2948L427.942 99.0038L434.885 104.283Z" fill="#EBDCCA"/>
<path d="M508.744 171.539L533.994 173.018C538.116 173.239 541.426 173.61 546.072 172.963C549.905 172.467 553.055 171.423 556.373 169.144C561.489 165.631 563.38 161.28 564.054 157.969C564.727 154.658 564.765 149.241 560.437 142.955C556.919 137.844 552.528 135.163 547.558 134.304C542.821 133.487 537.506 134.493 532.875 137.673C528.105 140.949 526.001 145.14 525.268 149.103C524.685 152.25 524.643 157.365 528.399 162.822C528.97 163.65 529.562 164.363 530.388 165.118L509.027 163.817L508.744 171.539ZM535.175 159.796C533.415 157.241 532.857 154.064 533.263 151.547C533.802 148.633 535.694 145.91 538.252 144.153C541.086 142.207 544.314 141.719 546.881 142.194C549.379 142.717 552.266 144.396 554.026 146.952C555.642 149.3 556.386 152.452 555.916 155.318C555.446 158.184 553.692 160.813 551.203 162.522C548.784 164.183 545.491 165.02 542.505 164.528C539.402 164.014 536.791 162.145 535.175 159.796Z" fill="#EBDCCA"/>
<path d="M602.89 223.08L548.599 236.559L550.664 244.858L572.886 239.342L573.25 240.806L554.897 261.865L557.388 271.873L576.373 249.189C579.804 256.027 586.696 259.413 594.51 257.473C596.871 256.887 603.18 254.802 605.69 247.872C607.18 243.787 606.941 239.354 605.3 232.763L602.89 223.08ZM597.305 233.279L598.013 236.127C599.026 240.196 600.096 247.619 592.444 249.519C583.816 251.661 581.264 242.446 580.697 240.167L580.049 237.563L597.305 233.279Z" fill="#EBDCCA"/>
<path d="M619.83 322.343C620.841 305.604 609.025 292.544 592.617 291.557C576.208 290.569 562.908 302.117 561.898 318.856C560.888 335.596 572.703 348.655 589.112 349.643C605.52 350.631 618.82 339.083 619.83 322.343ZM569.768 319.33C570.49 307.361 579.712 299.348 592.102 300.094C604.492 300.84 612.683 309.901 611.961 321.87C611.239 333.839 602.017 341.852 589.627 341.106C577.237 340.36 569.045 331.299 569.768 319.33Z" fill="#EBDCCA"/>
<path d="M542.015 418.675L538.417 427.168L603.292 425.818L559.613 377.136L556.015 385.629L566.064 396.522L556.742 418.526L542.015 418.675ZM572.107 402.898L586.196 418.229L565.499 418.495L572.107 402.898Z" fill="#EBDCCA"/>
<path d="M542.466 507.425C545.033 507.982 547.536 507.95 549.529 507.615C551.81 507.189 555.732 505.93 559.521 501.229C566.097 493.067 564.159 483.977 558.276 479.249C551.739 473.995 544.471 476.868 540.074 479.251L534.942 482.012C531.45 483.939 526.884 485.864 522.439 482.291C518.06 478.771 517.644 473.273 520.906 469.224C523.01 466.612 525.529 465.624 528.098 465.645C530.312 465.703 532.97 466.548 535.127 468.282L539.003 460.531C535.785 458.375 532.068 457.108 527.559 457.358C523.286 457.581 518.97 459.062 514.919 464.09C508.343 472.252 509.294 482.7 517.596 489.372C522.563 493.365 528.928 494.822 538.667 489.417L543.957 486.461C549.077 483.582 551.733 484.964 553.04 486.015C555.851 488.274 556.586 492.307 553.324 496.356C551.798 498.249 550.183 499.318 547.967 499.796C546.328 500.093 544.939 499.945 543.643 499.549L542.466 507.425Z" fill="#EBDCCA"/>
<path d="M494.654 553.477L499.677 559.768L526.44 538.45L521.417 532.159L511.381 540.153L481.503 502.736L474.812 508.065L504.69 545.483L494.654 553.477Z" fill="#EBDCCA"/>
<path d="M447.385 591.3L475.066 577.652L450.284 527.512L422.603 541.159L426.17 548.376L446.179 538.511L453.981 554.297L434.574 563.865L438.141 571.082L457.548 561.514L463.827 574.218L443.818 584.083L447.385 591.3Z" fill="#EBDCCA"/>
<path d="M411.01 606.963L398.889 552.363L390.536 554.213L395.497 576.56L394.024 576.887L373.423 558.003L363.351 560.233L385.562 579.791C378.638 583.042 375.079 589.842 376.823 597.701C377.35 600.074 379.277 606.432 386.145 609.12C390.193 610.714 394.633 610.59 401.265 609.121L411.01 606.963ZM400.949 601.118L398.083 601.752C393.989 602.659 386.538 603.536 384.83 595.842C382.903 587.165 392.184 584.852 394.476 584.344L397.097 583.764L400.949 601.118Z" fill="#EBDCCA"/>
<path d="M306.698 611.458C307.808 613.836 309.349 615.807 310.822 617.189C312.542 618.745 315.919 621.1 321.955 621.262C332.435 621.544 338.498 614.493 338.701 606.949C338.926 598.567 332.239 594.529 327.68 592.477L322.375 590.07C318.727 588.462 314.431 585.998 314.584 580.298C314.735 574.682 318.861 571.019 324.059 571.158C327.413 571.248 329.724 572.653 331.263 574.707C332.557 576.503 333.493 579.129 333.419 581.895L341.936 580.278C341.704 576.413 340.462 572.689 337.534 569.255C334.77 565.994 330.979 563.459 324.523 563.286C314.043 563.004 306.301 570.094 306.015 580.739C305.843 587.11 308.536 593.053 318.735 597.522L324.291 599.936C329.682 602.261 330.19 605.211 330.145 606.887C330.048 610.491 327.281 613.521 322.083 613.381C319.652 613.316 317.823 612.679 316.101 611.207C314.873 610.084 314.15 608.89 313.681 607.619L306.698 611.458Z" fill="#EBDCCA"/>
</svg>
