<svg width="288" height="283" viewBox="0 0 288 283" fill="none" xmlns="http://www.w3.org/2000/svg">
<path d="M90.7795 223.602L70.7787 239.819L79.6764 211.222L52.5705 223.699L66.0053 201.784L61.0883 197.454L37.3491 236.738L69.8667 221.89L59.3811 256.141L95.6965 227.933L90.7795 223.602Z" fill="#EBDCCA"/>
<path d="M63.6217 192.147L44.8153 189.793C41.7437 189.424 39.2873 188.982 35.7807 189.24C32.8893 189.424 30.4807 190.053 27.8835 191.602C23.8796 193.99 22.2439 197.167 21.5721 199.621C20.9003 202.076 20.5969 206.144 23.5132 211.08C25.8847 215.094 29.0321 217.325 32.7047 218.215C36.205 219.062 40.2306 218.568 43.8558 216.406C47.5892 214.179 49.3752 211.133 50.1252 208.192C50.7208 205.856 51.0122 202.015 48.4804 197.73C48.0959 197.079 47.6892 196.515 47.1103 195.906L63.0174 197.936L63.6217 192.147ZM43.2603 199.67C44.4461 201.676 44.702 204.091 44.2708 205.962C43.7193 208.125 42.166 210.078 40.1641 211.272C37.9457 212.595 35.5071 212.803 33.6117 212.319C31.7704 211.804 29.6968 210.4 28.5111 208.393C27.4214 206.549 27.0252 204.144 27.5226 202.014C28.02 199.883 29.4651 197.995 31.4129 196.833C33.3067 195.703 35.8115 195.236 38.0194 195.753C40.3136 196.292 42.1707 197.825 43.2603 199.67Z" fill="#EBDCCA"/>
<path d="M9.56078 175.241L50.9103 167.759L49.7764 161.434L32.8523 164.496L32.6522 163.38L47.4531 148.474L46.0859 140.846L30.7299 156.942C28.5007 151.647 23.5053 148.774 17.554 149.85C15.7562 150.176 10.9254 151.434 8.69923 156.51C7.37943 159.502 7.33754 162.839 8.23795 167.862L9.56078 175.241ZM14.2543 167.862L13.8652 165.691C13.3094 162.591 12.878 156.971 18.7054 155.916C25.2767 154.727 26.7299 161.763 27.0412 163.499L27.3969 165.484L14.2543 167.862Z" fill="#EBDCCA"/>
<path d="M6.42634 119.478C4.83543 131.977 13.0391 142.369 25.2864 143.942C37.5337 145.516 48.076 137.533 49.6669 125.034C51.2578 112.535 43.0542 102.144 30.8069 100.57C18.5595 98.9964 8.01725 106.979 6.42634 119.478ZM43.7932 124.279C42.6557 133.216 35.3457 138.756 26.0978 137.567C16.8498 136.379 11.1626 129.17 12.3001 120.233C13.4376 111.296 20.7475 105.756 29.9955 106.945C39.2435 108.133 44.9307 115.342 43.7932 124.279Z" fill="#EBDCCA"/>
<path d="M65.2082 82.2809L68.3086 76.0831L19.6986 73.8392L50.0444 112.594L53.1448 106.396L46.1482 97.7108L54.181 81.653L65.2082 82.2809ZM41.9332 92.6183L32.1268 80.3971L47.6267 81.2369L41.9332 92.6183Z" fill="#EBDCCA"/>
<path d="M56.7602 39.369C54.8685 38.8243 52.9959 38.7257 51.49 38.8795C49.7641 39.0875 46.7714 39.8413 43.7119 43.1902C38.4003 49.0042 39.4087 55.933 43.5769 59.7769C48.2082 64.0478 53.7805 62.245 57.1828 60.6692L61.1528 58.8456C63.8561 57.5678 67.3625 56.3451 70.5118 59.2493C73.6148 62.1109 73.6592 66.2654 71.0247 69.1491C69.3249 71.0096 67.3941 71.6286 65.4753 71.4873C63.8228 71.3346 61.8772 70.5687 60.3489 69.1593L57.076 74.7966C59.3763 76.5752 62.094 77.7102 65.4763 77.7442C68.6809 77.7857 71.9787 76.8848 75.2506 73.3033C80.5622 67.4894 80.3573 59.5875 74.4756 54.1634C70.9558 50.9175 66.2691 49.5092 58.7269 53.0947L54.6294 55.0579C50.6632 56.9707 48.7448 55.8014 47.8185 54.9473C45.8271 53.1107 45.4733 50.0421 48.1078 47.1584C49.3401 45.8095 50.5992 45.0852 52.2788 44.8345C53.5183 44.6921 54.5491 44.8714 55.4988 45.233L56.7602 39.369Z" fill="#EBDCCA"/>
<path d="M81.2858 21.793L77.8515 16.8146L56.7578 31.5031L60.1921 36.4814L68.1022 30.9733L88.5291 60.5841L93.8025 56.912L73.3756 27.3012L81.2858 21.793Z" fill="#EBDCCA"/>
<path d="M105.646 5.23012L84.2095 14.0607L100.087 52.9666L121.523 44.136L119.238 38.5364L103.743 44.9193L98.7445 32.6701L113.773 26.4791L111.488 20.8795L96.4593 27.0705L92.4363 17.2127L107.931 10.8298L105.646 5.23012Z" fill="#EBDCCA"/>
<path d="M115.258 3.13232L121.47 44.6916L127.825 43.7329L125.282 26.7228L126.403 26.5537L140.844 41.7684L148.506 40.6123L132.895 24.8096C138.253 22.7269 141.276 17.8108 140.382 11.8293C140.112 10.0224 139.002 5.15645 133.999 2.78952C131.05 1.38677 127.717 1.25245 122.671 2.0138L115.258 3.13232ZM122.488 8.03052L124.668 7.70154C127.783 7.23157 133.411 6.9558 134.286 12.8127C135.274 19.4174 128.2 20.6758 126.456 20.939L124.462 21.2398L122.488 8.03052Z" fill="#EBDCCA"/>
<path d="M172.235 8.3309C171.521 6.49171 170.465 4.93657 169.429 3.82643C168.218 2.57308 165.805 0.636849 161.289 0.210791C153.448 -0.528893 148.554 4.45137 148.026 10.0968C147.44 16.3694 152.251 19.7342 155.565 21.5023L159.421 23.5747C162.075 24.9641 165.173 27.0282 164.774 31.2936C164.381 35.4963 161.107 38.0349 157.218 37.668C154.709 37.4313 153.047 36.262 151.996 34.6442C151.115 33.2322 150.545 31.2167 150.738 29.1467L144.274 29.929C144.255 32.8381 145.001 35.6928 147.024 38.4149C148.934 40.9997 151.649 43.091 156.479 43.5466C164.319 44.2863 170.474 39.3616 171.219 31.3954C171.664 26.6281 169.942 22.0361 162.52 18.1719L158.476 16.0818C154.552 14.0663 154.318 11.8294 154.435 10.5749C154.687 7.87765 156.911 5.74613 160.8 6.11301C162.619 6.28462 163.958 6.85389 165.175 8.0445C166.04 8.94871 166.522 9.88014 166.811 10.8565L172.235 8.3309Z" fill="#EBDCCA"/>
<path d="M194.583 54.4007L213.42 36.8454L206.513 65.986L232.697 51.6708L220.803 74.4583L226.007 78.4392L246.985 37.6153L215.565 54.6673L223.667 19.7778L189.379 50.4198L194.583 54.4007Z" fill="#EBDCCA"/>
<path d="M223.918 83.9789L242.837 85.0747C245.926 85.2379 248.406 85.5154 251.888 85.0247C254.76 84.6484 257.121 83.8595 259.609 82.1407C263.445 79.4909 264.865 76.2124 265.372 73.7182C265.879 71.2241 265.911 67.1437 262.673 62.4126C260.04 58.5653 256.752 56.5491 253.029 55.9052C249.48 55.2938 245.497 56.0547 242.024 58.4539C238.448 60.9247 236.868 64.083 236.316 67.0682C235.877 69.4387 235.842 73.2915 238.653 77.3987C239.08 78.0226 239.523 78.5587 240.141 79.1272L224.136 78.1622L223.918 83.9789ZM243.732 75.1153C242.415 73.1916 241.999 70.799 242.305 68.9033C242.711 66.7083 244.131 64.6555 246.049 63.3306C248.174 61.8625 250.593 61.493 252.516 61.849C254.387 62.2408 256.549 63.5037 257.866 65.4274C259.076 67.195 259.631 69.568 259.277 71.7271C258.922 73.8863 257.606 75.8675 255.74 77.1566C253.926 78.4099 251.458 79.0427 249.221 78.674C246.896 78.2891 244.941 76.8829 243.732 75.1153Z" fill="#EBDCCA"/>
<path d="M279.037 97.3135L238.269 107.495L239.812 113.733L256.498 109.566L256.771 110.667L242.974 126.515L244.835 134.037L259.108 116.966C261.677 122.104 266.848 124.643 272.716 123.178C274.489 122.735 279.227 121.162 281.117 115.95C282.239 112.878 282.064 109.545 280.838 104.591L279.037 97.3135ZM274.835 104.986L275.365 107.127C276.121 110.185 276.918 115.765 271.172 117.2C264.693 118.818 262.785 111.892 262.361 110.179L261.877 108.222L274.835 104.986Z" fill="#EBDCCA"/>
<path d="M285.9 152.035C286.655 139.457 277.777 129.642 265.451 128.896C253.126 128.149 243.139 136.822 242.384 149.4C241.63 161.977 250.508 171.793 262.833 172.539C275.159 173.285 285.146 164.612 285.9 152.035ZM248.295 149.758C248.835 140.765 255.76 134.746 265.067 135.31C274.374 135.874 280.529 142.684 279.989 151.677C279.45 160.67 272.525 166.688 263.218 166.125C253.911 165.561 247.756 158.751 248.295 149.758Z" fill="#EBDCCA"/>
<path d="M229.85 193.351L227.16 199.738L275.82 198.792L243.005 162.115L240.315 168.501L247.865 176.708L240.896 193.255L229.85 193.351ZM252.404 181.513L262.988 193.063L247.464 193.241L252.404 181.513Z" fill="#EBDCCA"/>
<path d="M240.992 235.964C242.915 236.385 244.79 236.362 246.283 236.11C247.992 235.791 250.929 234.844 253.765 231.304C258.688 225.157 257.232 218.309 252.822 214.744C247.923 210.783 242.48 212.944 239.187 214.737L235.343 216.815C232.729 218.265 229.309 219.713 225.977 217.02C222.695 214.366 222.381 210.223 224.823 207.175C226.398 205.208 228.285 204.465 230.209 204.481C231.868 204.526 233.859 205.164 235.476 206.471L238.376 200.633C235.965 199.008 233.179 198.052 229.802 198.238C226.601 198.404 223.368 199.518 220.336 203.304C215.413 209.45 216.13 217.322 222.352 222.352C226.075 225.362 230.844 226.463 238.138 222.396L242.099 220.171C245.933 218.004 247.923 219.046 248.903 219.839C251.01 221.542 251.562 224.581 249.12 227.63C247.978 229.056 246.769 229.86 245.109 230.219C243.881 230.442 242.841 230.33 241.87 230.031L240.992 235.964Z" fill="#EBDCCA"/>
<path d="M217.948 255.02L221.708 259.757L241.767 243.684L238.007 238.947L230.485 244.974L208.119 216.799L203.104 220.817L225.47 248.992L217.948 255.02Z" fill="#EBDCCA"/>
<path d="M195.195 273.086L215.965 262.785L197.435 225.07L176.665 235.371L179.332 240.799L194.345 233.354L200.179 245.228L185.617 252.45L188.284 257.878L202.846 250.656L207.541 260.212L192.528 267.658L195.195 273.086Z" fill="#EBDCCA"/>
<path d="M185.693 275.963L176.637 234.929L170.365 236.327L174.071 253.121L172.964 253.368L157.513 239.19L149.949 240.874L166.609 255.558C161.408 258.008 158.73 263.122 160.033 269.028C160.427 270.812 161.869 275.59 167.023 277.605C170.061 278.8 173.394 278.703 178.375 277.593L185.693 275.963ZM178.144 271.577L175.992 272.057C172.917 272.742 167.322 273.407 166.046 267.624C164.607 261.103 171.576 259.357 173.298 258.974L175.266 258.535L178.144 271.577Z" fill="#EBDCCA"/>
<path d="M128.102 274.781C128.936 276.569 130.094 278.049 131.2 279.088C132.493 280.257 135.029 282.027 139.564 282.15C147.436 282.362 151.989 277.065 152.141 271.397C152.309 265.1 147.286 262.065 143.861 260.523L139.876 258.714C137.135 257.505 133.908 255.653 134.022 251.371C134.135 247.151 137.234 244.399 141.139 244.504C143.658 244.573 145.394 245.628 146.55 247.172C147.522 248.521 148.226 250.494 148.17 252.572L154.568 251.359C154.394 248.455 153.46 245.657 151.26 243.076C149.183 240.625 146.335 238.721 141.486 238.59C133.614 238.377 127.799 243.703 127.585 251.701C127.457 256.487 129.48 260.954 137.142 264.312L141.316 266.126C145.366 267.874 145.747 270.09 145.714 271.35C145.641 274.058 143.564 276.334 139.659 276.228C137.833 276.179 136.459 275.7 135.165 274.594C134.242 273.75 133.699 272.853 133.347 271.898L128.102 274.781Z" fill="#EBDCCA"/>
</svg>
