<svg width="415" height="269" viewBox="0 0 415 269" fill="none" xmlns="http://www.w3.org/2000/svg">
<path d="M95.0666 268.753C143.129 268.753 191.954 243.876 191.954 188.09C191.954 140.973 153.809 122.126 116.428 110.818L88.9634 102.149C64.5508 95.3641 63.025 83.6792 63.025 78.4021C63.025 64.0787 75.2313 51.6399 93.9222 51.6399C114.52 51.6399 124.057 64.8325 124.057 80.2868H183.944C183.944 29.7777 145.418 0 95.0666 0C42.8083 0 2.37486 32.7932 2.37486 79.533C2.37486 104.034 13.4368 139.088 71.4168 154.543L102.696 163.966C125.964 171.505 131.686 180.928 131.686 191.105C131.686 208.067 116.809 217.867 97.3553 217.867C76.7571 217.867 59.9734 205.052 59.9734 188.467H0.0861816C0.0861816 236.337 38.9938 268.753 95.0666 268.753Z" fill="url(#paint0_linear)"/>
<path d="M317.418 268.753C368.15 268.753 414.305 231.814 414.305 176.405C414.305 120.619 368.15 83.6792 317.418 83.6792C266.685 83.6792 220.911 120.619 220.911 176.405C220.911 231.814 266.685 268.753 317.418 268.753ZM317.418 217.114C295.675 217.114 278.128 200.529 278.128 176.405C278.128 152.281 295.675 135.319 317.418 135.319C339.16 135.319 356.707 152.281 356.707 176.405C356.707 200.529 339.16 217.114 317.418 217.114Z" fill="url(#paint1_linear)"/>
<defs>
<linearGradient id="paint0_linear" x1="194.39" y1="183.434" x2="267.852" y2="11.1043" gradientUnits="userSpaceOnUse">
<stop stop-color="#1E2124"/>
<stop offset="1" stop-color="#2D343C"/>
</linearGradient>
<linearGradient id="paint1_linear" x1="194.39" y1="183.434" x2="267.852" y2="11.1043" gradientUnits="userSpaceOnUse">
<stop stop-color="#1E2124"/>
<stop offset="1" stop-color="#2D343C"/>
</linearGradient>
</defs>
</svg>
