<svg width="515" height="334" viewBox="0 0 515 334" fill="none" xmlns="http://www.w3.org/2000/svg">
<path d="M118.089 334C177.846 334 238.55 303.083 238.55 233.753C238.55 175.198 191.125 151.776 144.648 137.722L110.501 126.948C80.1491 118.516 78.2521 103.994 78.2521 97.4362C78.2521 79.6354 93.4282 64.1767 116.667 64.1767C142.276 64.1767 154.133 80.5722 154.133 99.7784H228.591C228.591 37.007 180.691 0 118.089 0C53.1165 0 2.84553 40.7546 2.84553 98.8415C2.84553 129.29 16.5989 172.856 88.6857 192.062L127.575 203.773C156.504 213.142 163.618 224.853 163.618 237.501C163.618 258.581 145.122 270.76 120.935 270.76C95.3252 270.76 74.458 254.833 74.458 234.222H0C0 293.714 48.374 334 118.089 334Z" fill="url(#paint0_linear)"/>
<path d="M394.539 334C457.615 334 515 288.093 515 219.231C515 149.902 457.615 103.994 394.539 103.994C331.463 103.994 274.553 149.902 274.553 219.231C274.553 288.093 331.463 334 394.539 334ZM394.539 269.823C367.507 269.823 345.691 249.212 345.691 219.231C345.691 189.251 367.507 168.171 394.539 168.171C421.572 168.171 443.388 189.251 443.388 219.231C443.388 249.212 421.572 269.823 394.539 269.823Z" fill="url(#paint1_linear)"/>
<defs>
<linearGradient id="paint0_linear" x1="241.579" y1="227.968" x2="332.848" y2="13.7721" gradientUnits="userSpaceOnUse">
<stop stop-color="#1E2124"/>
<stop offset="1" stop-color="#2D343C"/>
</linearGradient>
<linearGradient id="paint1_linear" x1="241.579" y1="227.968" x2="332.848" y2="13.7721" gradientUnits="userSpaceOnUse">
<stop stop-color="#1E2124"/>
<stop offset="1" stop-color="#2D343C"/>
</linearGradient>
</defs>
</svg>
