<svg width="244" height="158" viewBox="0 0 244 158" fill="none" xmlns="http://www.w3.org/2000/svg">
<path d="M55.9882 157.77C84.2824 157.77 113.026 143.165 113.026 110.417C113.026 82.7571 90.57 71.6933 68.5634 65.0551L52.3953 59.9657C38.0236 55.9828 37.1254 49.1232 37.1254 46.0254C37.1254 37.6169 44.3112 30.3148 55.3145 30.3148C67.4406 30.3148 73.0545 38.0594 73.0545 47.1317H108.31C108.31 17.4808 85.6297 0 55.9882 0C25.2239 0 1.42083 19.251 1.42083 46.6892C1.42083 61.0721 7.93298 81.6508 42.0657 90.7231L60.4793 96.255C74.1773 100.68 77.5457 106.212 77.5457 112.187C77.5457 122.144 68.7879 127.897 57.3355 127.897C45.2095 127.897 35.3289 120.374 35.3289 110.638H0.0734863C0.0734863 138.74 22.9783 157.77 55.9882 157.77Z" fill="url(#paint0_linear)"/>
<path d="M186.886 157.77C216.752 157.77 243.923 136.085 243.923 103.557C243.923 70.8082 216.752 49.1232 186.886 49.1232C157.02 49.1232 130.073 70.8082 130.073 103.557C130.073 136.085 157.02 157.77 186.886 157.77ZM186.886 127.455C174.086 127.455 163.756 117.719 163.756 103.557C163.756 89.3954 174.086 79.438 186.886 79.438C199.685 79.438 210.015 89.3954 210.015 103.557C210.015 117.719 199.685 127.455 186.886 127.455Z" fill="url(#paint1_linear)"/>
<defs>
<linearGradient id="paint0_linear" x1="114.46" y1="107.684" x2="157.501" y2="6.43127" gradientUnits="userSpaceOnUse">
<stop stop-color="#1E2124"/>
<stop offset="1" stop-color="#2D343C"/>
</linearGradient>
<linearGradient id="paint1_linear" x1="114.46" y1="107.684" x2="157.501" y2="6.43127" gradientUnits="userSpaceOnUse">
<stop stop-color="#1E2124"/>
<stop offset="1" stop-color="#2D343C"/>
</linearGradient>
</defs>
</svg>
