<svg width="718" height="468" viewBox="0 0 718 468" fill="none" xmlns="http://www.w3.org/2000/svg">
<path d="M165.263 467.676C248.421 467.676 332.899 424.384 332.899 327.307C332.899 245.316 266.9 212.52 202.222 192.842L154.703 177.756C112.464 165.949 109.825 145.616 109.825 136.433C109.825 111.508 130.944 89.8619 163.283 89.8619C198.922 89.8619 215.422 112.819 215.422 139.712H319.039C319.039 51.8182 252.381 0 165.263 0C74.8455 0 4.88732 57.0656 4.88732 138.4C4.88732 181.036 24.0268 242.037 124.344 268.93L178.463 285.328C218.722 298.447 228.621 314.845 228.621 332.555C228.621 362.071 202.882 379.125 169.223 379.125C133.584 379.125 104.545 356.824 104.545 327.963H0.927429C0.927429 411.266 68.2456 467.676 165.263 467.676Z" fill="url(#paint0_linear)"/>
<path d="M549.976 467.676C637.754 467.676 717.612 403.395 717.612 306.974C717.612 209.896 637.754 145.616 549.976 145.616C462.198 145.616 383.001 209.896 383.001 306.974C383.001 403.395 462.198 467.676 549.976 467.676ZM549.976 377.814C512.357 377.814 481.998 348.953 481.998 306.974C481.998 264.994 512.357 235.478 549.976 235.478C587.595 235.478 617.954 264.994 617.954 306.974C617.954 348.953 587.595 377.814 549.976 377.814Z" fill="url(#paint1_linear)"/>
<defs>
<linearGradient id="paint0_linear" x1="337.113" y1="319.206" x2="465.456" y2="19.8548" gradientUnits="userSpaceOnUse">
<stop stop-color="#1E2124"/>
<stop offset="1" stop-color="#2D343C"/>
</linearGradient>
<linearGradient id="paint1_linear" x1="337.113" y1="319.206" x2="465.456" y2="19.8548" gradientUnits="userSpaceOnUse">
<stop stop-color="#1E2124"/>
<stop offset="1" stop-color="#2D343C"/>
</linearGradient>
</defs>
</svg>
